<?xml version="1.0" encoding="utf-8"?>
<!-- Generator: Adobe Illustrator 24.0.1, SVG Export Plug-In . SVG Version: 6.00 Build 0)  -->
<svg version="1.1" id="圖層_1" xmlns="http://www.w3.org/2000/svg" xmlns:xlink="http://www.w3.org/1999/xlink" x="0px" y="0px"
	 viewBox="0 0 60 538.3" style="enable-background:new 0 0 60 538.3;" xml:space="preserve">
<style type="text/css">
	.st0{fill:#EFEFEF;}
	.st1{fill:#FFFFFF;}
	.st2{fill:none;stroke:#EFEFEF;stroke-width:2;stroke-miterlimit:10;}
	.st3{fill:#BCBCBC;}
	.st4{fill:#C6C6C6;}
	.st5{fill:none;}
	.st6{fill:none;stroke:#EFEFEF;stroke-miterlimit:10;}
	.st7{opacity:0.8;}
	.st8{fill:#F4F4F4;}
	.st9{fill-rule:evenodd;clip-rule:evenodd;fill:#EFEFEF;}
</style>
<g>
	<rect x="31.8" y="179.1" class="st0" width="2.1" height="1.8"/>
	<g>
		<g>
			<path class="st0" d="M42.7,177.2c-3.9-0.2-7.3,2.8-7.5,6.7s2.8,7.3,6.7,7.5s7.3-2.8,7.5-6.7S46.6,177.4,42.7,177.2z M42,190.8
				c-3.6-0.2-6.4-3.2-6.2-6.8s3.2-6.4,6.8-6.2s6.4,3.2,6.2,6.8C48.7,188.2,45.6,191,42,190.8z"/>
			<path class="st0" d="M53,184.8c0.3-5.9-4.2-10.9-10.1-11.2s-10.9,4.2-11.2,10.1c-0.3,5.9,4.2,10.9,10.1,11.2
				C47.7,195.2,52.7,190.7,53,184.8z M42,191.7c-4.1-0.2-7.2-3.7-6.9-7.7c0.2-4.1,3.7-7.2,7.7-6.9s7.2,3.7,6.9,7.7
				C49.5,188.8,46,191.8,42,191.7z"/>
			<path class="st1" d="M42.8,177c-4.1-0.2-7.5,2.9-7.7,6.9c-0.2,4.1,2.9,7.5,6.9,7.7c4,0.1,7.5-2.9,7.7-6.9
				C50,180.7,46.9,177.3,42.8,177z M42,191.4c-3.9-0.2-6.9-3.6-6.7-7.5s3.6-6.9,7.5-6.7s6.9,3.6,6.7,7.5S45.9,191.6,42,191.4z"/>
		</g>
		<path class="st0" d="M43.1,179.9c-0.8-0.1-1.5,0-2,0.4c-0.5,0.3-0.8,0.8-0.9,1.5c0,0.4,0,0.8,0.2,1.1c0.2,0.4,0.5,0.7,0.9,0.9
			c-0.5,0.2-0.9,0.4-1.4,0.8c-0.3,0.4-0.4,0.8-0.5,1.3c-0.1,0.9,0.1,1.6,0.7,2.2c0.5,0.5,1.1,0.8,1.9,0.9c0.9,0.1,1.6-0.1,2.2-0.5
			c0.6-0.5,0.9-1.1,1-1.9c0.1-0.5,0-1-0.2-1.4s-0.5-0.7-1-1c0.4-0.1,0.7-0.3,1-0.6s0.4-0.7,0.5-1.1c0.1-0.6-0.1-1.2-0.5-1.7
			C44.6,180.3,43.9,180,43.1,179.9z M43.6,186.2c-0.1,0.4-0.2,0.8-0.5,1c-0.2,0.3-0.5,0.3-0.9,0.3c-0.3,0-0.6-0.2-0.8-0.5
			s-0.3-0.6-0.2-1.1c0.1-0.3,0.2-0.6,0.4-0.9c0.3-0.2,0.6-0.4,1-0.3c0.3,0.1,0.6,0.2,0.8,0.5C43.6,185.4,43.7,185.8,43.6,186.2z
			 M43.6,183.1c-0.2,0.2-0.5,0.2-0.8,0.2c-0.3-0.1-0.5-0.2-0.7-0.4s-0.2-0.5-0.2-0.8s0.1-0.5,0.4-0.8c0.2-0.2,0.5-0.2,0.8-0.2
			c0.3,0.1,0.5,0.2,0.7,0.4s0.2,0.5,0.2,0.8C43.9,182.7,43.8,182.9,43.6,183.1z"/>
	</g>
	<g>
		<path class="st0" d="M28.6,161.9c-3.9,1-6.4,5-5.4,8.9s5,6.4,8.9,5.4s6.4-5,5.4-8.9C36.6,163.3,32.5,160.9,28.6,161.9z M32,175.6
			c-3.6,0.9-7.3-1.3-8.2-4.9c-0.9-3.6,1.3-7.3,4.9-8.2s7.3,1.3,8.2,4.9S35.6,174.7,32,175.6z"/>
		<path class="st0" d="M41.1,166.4c-1.5-5.9-7.5-9.6-13.4-8.1s-9.6,7.5-8.1,13.4s7.5,9.6,13.4,8.1C39,178.3,42.6,172.3,41.1,166.4z
			 M32.2,176.5c-4.1,1-8.2-1.5-9.2-5.6s1.5-8.2,5.6-9.2s8.2,1.5,9.2,5.6C38.8,171.4,36.3,175.4,32.2,176.5z"/>
		<path class="st1" d="M28.6,161.7c-4.1,1-6.6,5.1-5.6,9.2s5.1,6.6,9.2,5.6c4-1.1,6.6-5.1,5.6-9.2C36.9,163.1,32.7,160.7,28.6,161.7
			z M32.1,176.2c-3.9,1-7.9-1.5-8.9-5.4s1.5-7.9,5.4-8.9s7.9,1.5,8.9,5.4S36.1,175.2,32.1,176.2z"/>
		<path class="st0" d="M32,168c-0.6-0.4-1.2-0.5-1.9-0.3c-0.6,0.2-1,0.5-1.3,1.1c-0.1-1-0.2-1.6,0-2c0.1-0.4,0.4-0.6,0.7-0.7
			c0.3,0,0.5,0,0.7,0.1s0.4,0.3,0.5,0.6l1.5-0.5c-0.3-0.6-0.7-1-1.2-1.5c-0.5-0.2-1.1-0.3-1.7-0.1c-0.9,0.2-1.5,0.7-1.9,1.5
			s-0.4,2,0,3.4c0.4,1.5,0.9,2.5,1.6,2.9c0.7,0.6,1.5,0.7,2.3,0.5s1.3-0.6,1.7-1.2c0.3-0.6,0.4-1.4,0.2-2.2
			C33,168.9,32.6,168.3,32,168z M31.6,171.4c-0.1,0.3-0.3,0.4-0.6,0.5c-0.3,0.1-0.6,0-0.9-0.2s-0.5-0.6-0.6-1.1s-0.1-0.9-0.1-1.2
			c0.2-0.2,0.4-0.4,0.7-0.5c0.3-0.1,0.6,0,0.9,0.2s0.5,0.6,0.6,1.1S31.7,171.1,31.6,171.4z"/>
	</g>
	<circle class="st2" cx="42.4" cy="184.2" r="6.9"/>
	<g>
		<g>
			<path class="st0" d="M16.5,178c-5.1,1.5-8,6.9-6.4,12c1.5,5.1,6.9,8,12,6.4s8-6.9,6.4-12C27,179.3,21.6,176.4,16.5,178z
				 M21.9,195.7c-4.7,1.4-9.7-1.2-11.1-5.9s1.2-9.7,5.9-11.1s9.7,1.2,11.1,5.9C29.2,189.3,26.6,194.3,21.9,195.7z"/>
			<path class="st0" d="M35.1,185c-2.3-7.6-10.4-11.9-18-9.6s-11.9,10.4-9.6,18s10.4,11.9,18,9.6C33.2,200.7,37.5,192.6,35.1,185z
				 M22.2,196.7c-5.2,1.6-10.8-1.4-12.4-6.6c-1.6-5.2,1.4-10.8,6.6-12.4c5.2-1.6,10.8,1.4,12.4,6.6
				C30.4,189.5,27.4,195.1,22.2,196.7z"/>
			<path class="st1" d="M16.4,177.7c-5.2,1.6-8.2,7.2-6.6,12.4s7.2,8.2,12.4,6.6c5.2-1.6,8.2-7.2,6.6-12.4S21.6,176.1,16.4,177.7z
				 M22.1,196.4c-5.1,1.6-10.5-1.3-12-6.4c-1.6-5.1,1.3-10.5,6.4-12c5.1-1.6,10.5,1.3,12,6.4C30.1,189.5,27.2,194.8,22.1,196.4z"/>
			<path class="st0" d="M17.3,182c0,0.7-0.2,1.3-0.7,2s-0.9,1.2-1.4,1.5l0.5,1.8c0.9-0.6,1.6-1.4,2.1-2.3l2.3,7.5l2-0.6l-3.2-10.4
				L17.3,182z"/>
		</g>
		<path class="st3" d="M33.7,184.7c2.1,7.7-2.5,15.6-10.2,17.6c-3.5,1-7.1,0.5-10.2-1c3.3,2.2,7.5,3,11.7,1.9
			c7.7-2.1,12.2-10,10.2-17.6c-1.1-4.1-3.9-7.4-7.5-9.2C30.6,178.3,32.8,181.1,33.7,184.7z"/>
	</g>
</g>
<g>
	<path class="st0" d="M51.5,16.9c1.4-0.3,2.5-1.5,2.5-3c0-1.7-1.4-3.1-3.1-3.1c-1.7,0-3.1,1.4-3.1,3.1c0,1.5,1.1,2.7,2.5,3v21.9h-3
		v-2.9h-1.8V11.4H8.3v35.7h37.2v-1.3h1.8V42h6.2v-3.3h-2V16.9z M38.3,44.3h-23v-2.4h23V44.3z M42.8,33.8H11.1V14.3h31.7
		C42.8,14.3,42.8,33.8,42.8,33.8z"/>
	<g>
		<path class="st0" d="M12.6,17.8v12.7h8.7V17.8H12.6z M20,21.6c0,0.3-0.4,0.9-1.1,2.3c-0.5,0.9-1,2-1.1,2.2
			c-0.1,0.5-0.1,1.8-0.1,2.3c0,0,0,0,0,0.1c0,0.2-0.2,0.4-0.4,0.4l0,0H15c-0.2,0-0.3-0.1-0.4-0.3c0-0.1,0-0.5,0.2-2.1
			c0.2-1.3,1.8-3.5,2.4-4.4c-0.3-0.1-0.5-0.2-0.7-0.2c-1,0-1.1,1.5-1.1,1.6c0,0.2-0.2,0.4-0.4,0.4h-1c-0.2,0-0.4-0.2-0.4-0.4v-3.7
			c0-0.2,0.2-0.4,0.4-0.4h0.7c0.1,0,0.3,0.1,0.3,0.2l0.1,0.3c0.3-0.2,0.8-0.5,1.5-0.5c0.7,0,1.4,0.3,1.8,0.5l0.1-0.3
			c0-0.2,0.2-0.3,0.4-0.3h0.8c0.2,0,0.3,0.2,0.4,0.3C20.1,19.9,20.1,21.1,20,21.6z"/>
	</g>
	<g>
		<path class="st0" d="M22.5,17.8v12.7h8.7V17.8H22.5z M30.1,21.6c0,0.3-0.4,0.9-1.1,2.3c-0.5,0.9-1,2-1.1,2.2
			c-0.1,0.5-0.1,1.8-0.1,2.3c0,0,0,0,0,0.1c0,0.2-0.2,0.4-0.4,0.4l0,0h-2.3c-0.2,0-0.3-0.1-0.4-0.3c0-0.1,0-0.5,0.2-2.1
			c0.2-1.3,1.8-3.5,2.4-4.4c-0.3-0.1-0.5-0.2-0.7-0.2c-1,0-1.1,1.5-1.1,1.6c0,0.2-0.2,0.4-0.4,0.4H24c-0.2,0-0.4-0.2-0.4-0.4v-3.7
			c0-0.2,0.2-0.4,0.4-0.4h0.7c0.1,0,0.3,0.1,0.3,0.2l0.1,0.3c0.3-0.2,0.8-0.5,1.5-0.5s1.4,0.3,1.8,0.5l0.1-0.3
			c0-0.2,0.2-0.3,0.4-0.3h0.8c0.2,0,0.3,0.2,0.4,0.3C30.2,19.9,30.2,21.1,30.1,21.6z"/>
	</g>
	<g>
		<path class="st0" d="M32.4,17.8v12.7h8.7V17.8H32.4z M40.2,21.6c0,0.3-0.4,0.9-1.1,2.3c-0.5,0.9-1,2-1.1,2.2
			c-0.1,0.5-0.1,1.8-0.1,2.3c0,0,0,0,0,0.1c0,0.2-0.2,0.4-0.4,0.4l0,0h-2.3c-0.2,0-0.3-0.1-0.4-0.3c0-0.1,0-0.5,0.2-2.1
			c0.2-1.3,1.8-3.5,2.4-4.4c-0.3-0.1-0.5-0.2-0.7-0.2c-1,0-1.1,1.5-1.1,1.6c0,0.2-0.2,0.4-0.4,0.4h-1.1c-0.2,0-0.4-0.2-0.4-0.4v-3.7
			c0-0.2,0.2-0.4,0.4-0.4h0.7c0.1,0,0.3,0.1,0.3,0.2l0.1,0.3c0.3-0.2,0.8-0.5,1.5-0.5s1.4,0.3,1.8,0.5l0.1-0.3
			c0-0.2,0.2-0.3,0.4-0.3h0.8c0.2,0,0.3,0.2,0.4,0.3C40.2,19.9,40.3,21.1,40.2,21.6z"/>
	</g>
</g>
<g>
	<path class="st0" d="M48.7,77.4c-0.1-1-0.3-2-0.6-3c-0.4-1.4-0.9-2.7-1.6-3.9c-0.5-0.9-1.1-1.8-1.7-2.6c-0.9-1.1-1.9-2.1-3-3
		c-0.8-0.6-1.7-1.2-2.6-1.7c-1.2-0.7-2.5-1.2-3.9-1.6c-1-0.3-2-0.5-3-0.6c-0.7-0.1-1.4-0.1-2.1-0.1s-1.4,0-2.1,0.1
		c-1,0.1-2,0.3-3,0.6c-1.4,0.4-2.7,0.9-3.9,1.6c-0.9,0.5-1.8,1.1-2.6,1.7c-1.1,0.9-2.1,1.9-3,3c-0.6,0.8-1.2,1.7-1.7,2.6
		c-0.7,1.2-1.2,2.5-1.6,3.9c-0.3,1-0.5,2-0.6,3c-0.1,0.7-0.1,1.4-0.1,2.1s0,1.4,0.1,2.1c0.1,1,0.3,2,0.6,3c0.4,1.4,0.9,2.7,1.6,3.9
		c0.5,0.9,1.1,1.8,1.7,2.6c0.9,1.1,1.9,2.1,3,3c0.8,0.6,1.7,1.2,2.6,1.7c1.2,0.7,2.5,1.2,3.9,1.6c1,0.3,2,0.5,3,0.6
		c0.7,0.1,1.4,0.1,2.1,0.1s1.4,0,2.1-0.1c1-0.1,2-0.3,3-0.6c1.4-0.4,2.7-0.9,3.9-1.6c0.9-0.5,1.8-1.1,2.6-1.7c1.1-0.9,2.1-1.9,3-3
		c0.6-0.8,1.2-1.7,1.7-2.6c0.7-1.2,1.2-2.5,1.6-3.9c0.3-1,0.5-2,0.6-3c0.1-0.7,0.1-1.4,0.1-2.1S48.7,78.1,48.7,77.4z M44,68.6
		c0.6,0.7,1.1,1.5,1.5,2.2L42.6,72c-0.3-0.4-0.5-0.8-0.8-1.2L44,68.6z M38.8,64.2c0.8,0.4,1.5,0.9,2.2,1.5l-2.2,2.2
		c-0.4-0.3-0.8-0.6-1.2-0.8L38.8,64.2z M32.3,62c0.9,0.1,1.8,0.3,2.6,0.5l-1.2,2.9c-0.5-0.1-0.9-0.2-1.4-0.3
		C32.3,65.1,32.3,62,32.3,62z M28.1,62v3.1c-0.5,0.1-1,0.2-1.4,0.3l-1.2-2.9C26.3,62.3,27.2,62.1,28.1,62z M21.6,64.2l1.2,2.9
		c-0.4,0.3-0.8,0.5-1.2,0.8l-2.2-2.2C20.1,65.1,20.8,64.6,21.6,64.2z M16.4,68.6l2.2,2.2c-0.3,0.4-0.6,0.8-0.8,1.2l-2.9-1.2
		C15.3,70.1,15.8,69.3,16.4,68.6z M13.3,74.7l2.9,1.2c-0.1,0.5-0.2,0.9-0.3,1.4h-3.1C12.9,76.5,13,75.6,13.3,74.7z M13.3,84.2
		c-0.2-0.9-0.4-1.7-0.5-2.6h3.1c0.1,0.5,0.2,1,0.3,1.4L13.3,84.2z M16.4,90.3c-0.6-0.7-1.1-1.5-1.5-2.2l2.9-1.2
		c0.3,0.4,0.5,0.8,0.8,1.2L16.4,90.3z M21.6,94.8c-0.8-0.4-1.5-0.9-2.2-1.5l2.2-2.2c0.4,0.3,0.8,0.6,1.2,0.8L21.6,94.8z M28.1,96.9
		c-0.9-0.1-1.8-0.3-2.6-0.5l1.2-2.9c0.5,0.1,0.9,0.2,1.4,0.3V96.9z M32.3,96.9v-3.1c0.5-0.1,1-0.2,1.4-0.3l1.2,2.9
		C34.1,96.7,33.2,96.8,32.3,96.9z M38.8,94.8l-1.2-2.9c0.4-0.3,0.8-0.5,1.2-0.8l2.2,2.2C40.4,93.9,39.6,94.4,38.8,94.8z M30.2,93
		c-7.4,0-13.5-6-13.5-13.5c0-7.4,6-13.5,13.5-13.5c7.4,0,13.5,6,13.5,13.5C43.7,86.9,37.6,93,30.2,93z M44,90.3l-2.2-2.2
		c0.3-0.4,0.6-0.8,0.8-1.2l2.9,1.2C45.1,88.9,44.6,89.6,44,90.3z M47.1,84.2L44.2,83c0.1-0.5,0.2-0.9,0.3-1.4h3.1
		C47.6,82.5,47.4,83.4,47.1,84.2z M44.5,77.4c-0.1-0.5-0.2-1-0.3-1.4l2.9-1.2c0.2,0.9,0.4,1.7,0.5,2.6H44.5z"/>
	<path class="st4" d="M51.1,79.5c0-2.8-0.5-5.5-1.5-7.9c-3-7.8-10.6-13.3-19.5-13.3s-16.4,5.5-19.5,13.3c-1,2.4-1.5,5.1-1.5,7.9
		s0.6,5.5,1.6,8c3,7.8,10.6,13.3,19.4,13.3s16.4-5.5,19.4-13.3C50.6,85,51.1,82.4,51.1,79.5z M11.3,77.4c0.1-1.1,0.3-2.1,0.6-3.1
		c0.4-1.4,1-2.7,1.6-4c0.5-0.9,1.1-1.8,1.7-2.6c0.9-1.1,1.9-2.1,3-3c0.8-0.7,1.7-1.2,2.6-1.7c1.2-0.7,2.6-1.2,4-1.6
		c1-0.3,2-0.5,3.1-0.6c0.7-0.1,1.4-0.1,2.1-0.1s1.4,0,2.1,0.1c1.1,0.1,2.1,0.3,3.1,0.6c1.4,0.4,2.7,1,4,1.6c0.9,0.5,1.8,1.1,2.6,1.7
		c1.1,0.9,2.1,1.9,3,3c0.7,0.8,1.2,1.7,1.7,2.6c0.7,1.2,1.2,2.6,1.6,4c0.3,1,0.5,2,0.6,3.1c0.1,0.7,0.1,1.4,0.1,2.1s0,1.4-0.1,2.1
		c-0.1,1.1-0.3,2.1-0.6,3.1c-0.4,1.4-1,2.7-1.6,4c-0.5,0.9-1.1,1.8-1.7,2.6c-0.9,1.1-1.9,2.1-3,3C41,95,40.1,95.5,39.2,96
		c-1.2,0.7-2.6,1.2-4,1.6c-1,0.3-2,0.5-3.1,0.6c-0.7,0.1-1.4,0.1-2.1,0.1s-1.4,0-2.1-0.1c-1.1-0.1-2.1-0.3-3.1-0.6
		c-1.4-0.4-2.7-1-4-1.6c-0.9-0.5-1.8-1.1-2.6-1.7c-1.1-0.9-2.1-1.9-3-3c-0.7-0.8-1.2-1.7-1.7-2.6c-0.7-1.2-1.2-2.6-1.6-4
		c-0.3-1-0.5-2-0.6-3.1c-0.1-0.7-0.1-1.4-0.1-2.1S11.2,78.1,11.3,77.4z"/>
	<g>
		<path class="st0" d="M39.6,79.1c-0.1-0.2-0.2-0.4-0.4-0.5c-0.1-0.1-0.2-0.1-0.4-0.1c-0.1,0-0.1,0-0.2,0c0,0-0.1,0-0.3,0.1
			c-0.2,0-0.5,0.1-0.8,0.1c-0.1,0-0.1,0-0.2,0c-0.2,0-0.4,0-0.5,0c-0.2,0-0.4-0.1-0.6-0.1s-0.4-0.1-0.6-0.1c-0.2,0-0.4,0-0.6,0.1
			c-0.2,0-0.5,0.1-0.7,0.1s-0.4,0.1-0.7,0.1c-0.1,0-0.1,0-0.2,0c-0.1-0.4-0.2-0.8-0.5-1.2c-0.1-0.2-0.3-0.4-0.4-0.5
			c-0.1-0.1-0.1-0.1-0.2-0.2c-0.4-0.3-0.8-0.6-1.3-0.7c-0.1,0-0.1,0-0.2-0.1c0-0.1,0-0.1,0-0.2c0-0.2,0-0.4,0.1-0.7
			c0-0.2,0.1-0.4,0.1-0.7c0-0.2,0-0.4,0.1-0.6c0-0.2,0-0.4-0.1-0.6s-0.1-0.4-0.1-0.6s0-0.4,0-0.5s0-0.2,0-0.2c0-0.3,0-0.6,0.1-0.8
			c0-0.2,0.1-0.3,0.1-0.3c0-0.1,0-0.1,0-0.1l0,0c0,0,0,0,0-0.1s0-0.1,0-0.2c-0.1-0.3-0.4-0.5-0.7-0.6c-0.1,0-0.2,0-0.3,0
			c-0.1,0-0.1,0-0.2,0c-0.3,0.1-0.5,0.4-0.6,0.7c0,0.1,0,0.1,0,0.1s0,0,0,0.1c0,0,0,0.1,0.1,0.3c0,0.1,0,0.3,0.1,0.4
			c0,0.1,0,0.3,0,0.4s0,0.1,0,0.2c0,0.2,0,0.4,0,0.5c0,0.2-0.1,0.4-0.1,0.6s-0.1,0.4-0.1,0.6s0,0.4,0.1,0.6c0,0.2,0.1,0.5,0.1,0.7
			s0.1,0.4,0.1,0.7c0,0.1,0,0.1,0,0.2c-0.6,0.2-1.2,0.5-1.6,0.8c-0.1,0.1-0.1,0.1-0.2,0.2c-0.4,0.5-0.8,1-0.9,1.7
			c-0.1,0-0.1,0-0.2,0c-0.2,0-0.4,0-0.7-0.1c-0.2,0-0.4-0.1-0.7-0.1c-0.2,0-0.4,0-0.6-0.1c-0.2,0-0.4,0-0.6,0.1s-0.4,0.1-0.6,0.1
			s-0.4,0-0.5,0s-0.2,0-0.2,0c-0.3,0-0.6,0-0.8-0.1c-0.2,0-0.3-0.1-0.3-0.1c-0.1,0-0.1,0-0.2,0c-0.3,0-0.6,0.3-0.7,0.6
			c0,0.1,0,0.2,0,0.3c0,0.1,0,0.3,0.1,0.4c0.1,0.2,0.3,0.3,0.5,0.4c0.1,0,0.1,0,0.2,0s0.1,0,0.2,0c0,0,0.1,0,0.3-0.1
			c0.2,0,0.5-0.1,0.8-0.1c0.1,0,0.1,0,0.2,0c0.2,0,0.4,0,0.5,0c0.2,0,0.4,0.1,0.6,0.1s0.4,0.1,0.6,0.1s0.4,0,0.6-0.1
			c0.2,0,0.5-0.1,0.7-0.1s0.4-0.1,0.7-0.1c0.1,0,0.1,0,0.2,0c0,0.2,0.1,0.3,0.1,0.5c0.1,0.4,0.3,0.7,0.6,1c0.1,0.1,0.1,0.1,0.2,0.2
			c0.5,0.4,1,0.8,1.7,0.9c0,0.1,0,0.1,0,0.2v0.1c0,0.2,0,0.4-0.1,0.5c0,0.2-0.1,0.4-0.1,0.7c0,0.2,0,0.4-0.1,0.6
			c0,0.2,0,0.4,0.1,0.6s0.1,0.4,0.1,0.6s0,0.4,0,0.5s0,0.2,0,0.2c0,0.3,0,0.6-0.1,0.8c0,0.2-0.1,0.3-0.1,0.3c0,0.1,0,0.1,0,0.2
			c0,0.3,0.2,0.6,0.6,0.7c0.1,0,0.1,0,0.2,0s0.2,0,0.3,0c0.3,0,0.6-0.3,0.7-0.6c0-0.1,0-0.1,0-0.2s0-0.1,0-0.2c0,0,0-0.1-0.1-0.3
			c0-0.2-0.1-0.5-0.1-0.8c0-0.1,0-0.1,0-0.2c0-0.2,0-0.4,0-0.5c0-0.2,0.1-0.4,0.1-0.6s0.1-0.4,0.1-0.6s0-0.4-0.1-0.6
			c0-0.2-0.1-0.5-0.1-0.7s-0.1-0.4-0.1-0.7c0-0.1,0-0.1,0-0.2c0.6-0.1,1.2-0.4,1.7-0.9c0.1-0.1,0.1-0.1,0.2-0.2
			c0.4-0.4,0.6-1,0.8-1.5c0.1,0,0.1,0,0.2,0c0.2,0,0.4,0,0.7,0.1c0.2,0,0.4,0.1,0.7,0.1c0.2,0,0.4,0,0.6,0.1c0.2,0,0.4,0,0.6-0.1
			s0.4-0.1,0.6-0.1c0.2,0,0.4,0,0.5,0s0.2,0,0.2,0c0.3,0,0.6,0,0.8,0.1c0.2,0,0.3,0.1,0.3,0.1c0.1,0,0.1,0,0.2,0c0.1,0,0.1,0,0.2,0
			C39.5,79.8,39.7,79.4,39.6,79.1z M30.2,80.3c-0.6,0-1.2-0.5-1.2-1.2c0-0.6,0.5-1.2,1.2-1.2s1.2,0.5,1.2,1.2
			C31.4,79.8,30.9,80.3,30.2,80.3z"/>
	</g>
</g>
<g>
	<path class="st5" d="M36.2,220.3c0.1-0.5-0.1-0.9-0.6-1.1c-0.5-0.1-0.9,0.1-1.1,0.6c0.1-0.5-0.1-0.9-0.6-1.1
		c-0.5-0.1-0.9,0.1-1.1,0.6c-0.1,0.2-0.1,0.4,0,0.6c0.2,0.8,0.7,1.2,1,2c0.7-0.5,1.3-0.6,2-1.1C36,220.7,36.2,220.5,36.2,220.3z"/>
	<path class="st5" d="M44.8,231c0.4-1.3-0.3-2.7-1.6-3.1c-1.3-0.4-2.7,0.3-3.1,1.6c0.4-1.3-0.3-2.7-1.6-3.1
		c-1.3-0.4-2.7,0.3-3.1,1.6c-0.2,0.6-0.1,1.1,0.1,1.7c0.6,2.2,1.9,3.5,2.7,5.7c1.9-1.4,3.8-1.6,5.5-3.1
		C44.2,232,44.6,231.5,44.8,231z"/>
	<path class="st5" d="M44.6,245.3l-1.5-0.5l-0.1-0.7l-0.7-0.2l0.4,3.6l0.7,0.2l2.3-2.7l-0.8-0.2L44.6,245.3z M43.3,246.8l-0.1-1.4
		l1,0.3L43.3,246.8z"/>
	<path class="st5" d="M34.7,216.7l1.5,0.5l0.1,0.7l0.8,0.2l-0.3-3.6l-0.7-0.2l-2.4,2.7l0.7,0.2L34.7,216.7z M36,215.2l0.1,1.4
		l-1-0.3L36,215.2z"/>
	<path class="st5" d="M45.3,240.4c-0.7,0.5-1.3,0.6-2,1.1c-0.2,0.1-0.3,0.3-0.4,0.5c-0.1,0.5,0.1,0.9,0.6,1.1
		c0.5,0.1,0.9-0.1,1.1-0.6c-0.1,0.5,0.1,0.9,0.6,1.1c0.5,0.1,0.9-0.1,1.1-0.6c0.1-0.2,0.1-0.4,0-0.6
		C46.1,241.7,45.6,241.2,45.3,240.4z"/>
	<path class="st0" d="M54.4,218.8l-19.6-6.3c-0.6-0.2-1.2,0.1-1.4,0.7l-3.3,10.2l2.6,22.3l11.8,3.8c0.6,0.2,1.2-0.1,1.4-0.7
		l9.1-28.6C55.3,219.6,55,219,54.4,218.8z M35.9,214.3l0.7,0.2l0.3,3.6l-0.8-0.2l-0.1-0.7l-1.5-0.5l-0.4,0.5l-0.7-0.2L35.9,214.3z
		 M32.9,219.8c-0.1-0.2-0.1-0.4,0-0.6c0.1-0.5,0.6-0.7,1.1-0.6c0.5,0.1,0.7,0.6,0.6,1.1c0.1-0.5,0.6-0.7,1.1-0.6
		c0.5,0.1,0.7,0.6,0.6,1.1c-0.1,0.2-0.2,0.4-0.4,0.5c-0.6,0.5-1.3,0.6-2,1.1C33.6,221.1,33.1,220.6,32.9,219.8z M35.6,229.7
		c-0.2-0.5-0.2-1.1-0.1-1.7c0.4-1.3,1.8-2,3.1-1.6s2,1.8,1.6,3.1c0.4-1.3,1.8-2,3.1-1.6s2,1.8,1.6,3.1c-0.2,0.6-0.5,1-1,1.3
		c-1.7,1.5-3.6,1.7-5.5,3.1C37.5,233.1,36.1,231.9,35.6,229.7z M43.4,247.7l-0.7-0.2l-0.4-3.6l0.7,0.2l0.1,0.7l1.5,0.5l0.4-0.5
		l0.8,0.2L43.4,247.7z M46.3,243.1c-0.1,0.5-0.6,0.7-1.1,0.6c-0.5-0.1-0.7-0.6-0.6-1.1c-0.1,0.5-0.6,0.7-1.1,0.6
		c-0.5-0.1-0.7-0.6-0.6-1.1c0.1-0.2,0.2-0.4,0.4-0.5c0.6-0.5,1.3-0.6,2-1.1c0.3,0.8,0.8,1.3,1,2C46.4,242.7,46.4,242.9,46.3,243.1z"
		/>
	<polygon class="st0" points="43.3,246.8 44.2,245.8 43.2,245.5 	"/>
	<polygon class="st0" points="36,215.2 35.1,216.2 36.1,216.6 	"/>
	<g>
		<path class="st6" d="M31,245.7l-2.6-22.3l-0.6-5.2c-0.1-0.6-0.6-1.1-1.3-1l-20.4,2.4c-0.6,0.1-1.1,0.6-1,1.3l3.5,29.8
			c0.1,0.6,0.6,1.1,1.3,1l20.4-2.4c0.6-0.1,1.1-0.6,1-1.3L31,245.7z"/>
		<path class="st0" d="M23.7,234.7c-0.2-1.6-1.5-2.7-3.1-2.6c0.2-0.4,0.2-0.9,0.2-1.4c-0.2-1.6-1.7-2.8-3.3-2.6s-2.8,1.7-2.6,3.3
			c0.1,0.5,0.2,0.9,0.4,1.2c-1.5,0.3-2.5,1.7-2.3,3.3s1.7,2.8,3.3,2.6c0.8-0.1,1.5-0.5,2-1.1c0,1.4-0.3,2.6-1.1,3.5l3.7-0.4
			c-0.8-0.7-1.5-1.8-1.8-3.1c0.6,0.4,1.3,0.6,2.1,0.5C22.7,237.9,23.9,236.4,23.7,234.7z"/>
		<g>
			<polygon class="st5" points="28.1,247.3 28.4,246 27.4,246.1 			"/>
			<polygon class="st5" points="8,222.9 9,222.8 8.4,221.5 			"/>
			<path class="st0" d="M9.5,226c0-0.1,0-0.2,0-0.3c0-0.4-0.4-0.6-0.7-0.6c-0.4,0-0.6,0.4-0.6,0.7c0,0.1,0,0.2,0.1,0.3
				c-0.3,0.1-0.6,0.4-0.5,0.7c0,0.4,0.4,0.6,0.7,0.6c0.2,0,0.3-0.1,0.4-0.2c0,0.3-0.1,0.6-0.2,0.8l0.8-0.1c-0.2-0.1-0.3-0.4-0.4-0.7
				c0.1,0.1,0.3,0.1,0.5,0.1c0.4,0,0.6-0.4,0.6-0.7C10.1,226.3,9.8,226,9.5,226z"/>
			<path class="st0" d="M7.8,220.9l-1,3.4l0.8-0.1l0.2-0.7l1.5-0.1l0.3,0.6l0.8-0.1l-1.8-3.1L7.8,220.9z M8,222.9l0.4-1.4l0.6,1.3
				L8,222.9z"/>
			<path class="st0" d="M26.9,242.8c0,0.1,0,0.2,0,0.3c0,0.4,0.3,0.6,0.7,0.6c0.4,0,0.6-0.3,0.6-0.7c0-0.1,0-0.2-0.1-0.3
				c0.3,0,0.6-0.3,0.5-0.7c0-0.4-0.3-0.6-0.7-0.6c-0.1,0-0.3,0.1-0.4,0.2c0-0.3,0-0.6,0.2-0.8l-0.8,0.1c0.2,0.2,0.3,0.4,0.4,0.7
				c-0.2-0.1-0.3-0.1-0.5-0.1c-0.4,0-0.6,0.3-0.6,0.7C26.3,242.6,26.6,242.8,26.9,242.8z"/>
			<path class="st0" d="M28.8,244.7l-0.2,0.7l-1.5,0.1l-0.3-0.6L26,245l1.8,3.1l0.8-0.1l1-3.4L28.8,244.7z M28.1,247.3l-0.7-1.2
				l1-0.1L28.1,247.3z"/>
		</g>
	</g>
</g>
<path class="st0" d="M5.1,278.8c0,0,1.3,1.6,3.8,1.9s3.4-1,4.7-1.1c1-0.1,2.7-0.7,3.8-1.7c-0.3,1.6,0,3.8,0.8,4.9
	c1.1,1.4,3.8,3.5,3.8,3.8c0.1,0.3,0,3.6-0.1,4s-0.1,1.5,0.7,1.6s5.5,0.9,6,1.1s1.1,0.5,1.1,0.7s-0.3,1-0.2,1.2
	c0.1,0.3,2.1,1.1,2.1,1.1s-0.4-0.9,0.1-1c0.4-0.1,0.5,0.4,0.4,0.9c-0.1,0.4,0.3,1.4,0.3,1.4H35c0,0-1.9-2-2-2.8s-0.6-1.4-1.4-1.8
	c-0.8-0.4-3.5-2.6-3.7-3.7c-0.2-1.2-1.4-4.6-1.4-4.6s2.3,1.7,4.1,2c1.7,0.3,6-0.1,6.3,0c0.3,0.2,1.2,1.9,1.7,2.3s2.1,2.4,2,2.6
	s-3.3,0.6-3.9,0.7c-0.7,0.1-0.5,0.4-0.5,0.4s-0.9-0.2-0.8-1c0.1-0.8-1.5-0.5-1.5-0.5l-1.1,0.2c0,0,1,1.4,1.3,1.6s1.4,0.9,2.8,0.8
	c1.4-0.1,4.1-0.4,4.6-0.5c0.4-0.1,1.6-0.6,1.1-1.9s-1.1-2.1-0.9-2.7c0,0,1.9,0.1,2.1,0c0,0,0.1,0.5,0,1.4s-0.4,2.6-0.5,2.9
	s0.3,0.4,0.1,0.6c-0.1,0.1-0.7,0.5-1,0.3s-0.9,0.4-0.9,0.4l-0.1,2.2c0,0,1.1-0.9,1.6-1c0.4-0.1,0.9-0.9,1.6-1.5c0,0,0.2-0.6,0.2-1.4
	c0-0.7,0.3-2.5,0.7-3c0,0,0.3-1.4,0-2c-0.4-0.6-3.3-0.8-3.9-1.1c0,0,1-0.7,1.2-2.2s0.4-2.9,1.6-4.3c1.2-1.4,3.7-3.9,3.9-3.9
	s0.7,1,1.6,1.1c0.9,0.1,1.7,0.2,2.1,0.4c0.4,0.2,1.1,1.1,1.5,1.1s1.4-0.2,1.6-0.9c0.3-0.7-0.2-1.4-0.5-1.7s-2-2.3-2.2-2.6
	c-0.2-0.3-0.7-1.6-1.6-2.2c-0.9-0.6-1.2-0.9-1.2-0.9s-0.6-0.4-0.9-0.6c-0.3-0.2-0.8-0.7-1-0.7c0,0,0.7,1.2,0.5,1.2
	c-0.2,0.1-1.5,0-2.1,0.1s-1.5,0.4-1.5,0.4s0.9,0,1.1,0c0.2,0,0,0.2-0.4,0.3c-0.4,0-2,0.3-2.3,0.4c0,0,1.1,0,1.1,0.1
	s-1.4,0.1-1.8,0.4c-0.4,0.3-0.6,0.4-0.9,0.3c-0.3,0-2-0.9-2.3-1c0,0-0.6-0.1-0.5-0.6s-0.2-1.2-0.3-1.4c-0.1-0.2,0.2-0.8,0.4-0.8
	s0.6,0.4,1,0.2c0.4-0.2,0.8-0.6,1-0.8c0.1-0.3,0.4-0.7,0.5-0.8c0.1,0,1-0.1,1.1-0.2c0,0-0.5-0.1-0.8-0.4c-0.3-0.4-0.2-1.5-1.9-1.7
	c-1.6-0.2-1.9,1.8-1.8,2c0,0-0.6,0.1-1.4-0.2c-0.7-0.3-4.1-0.2-4.6-0.1c-0.5,0.1-2.6,1.6-3,1.8c-0.4,0.2-1,0.3-1.3,0.2
	c-0.3-0.1-2-3.9-2.4-5l2.2,5.3c0,0-0.1,0.7,0,0.8c0,0.2,0.6,0.7,0.9,0.6c0.3,0,0.6-0.9,0.9-1c0.2-0.1,2.3-0.7,2.7-0.8
	s0.3,0.3,0.3,0.3s-2.6,3.1-2.6,3.5s-0.2,1.3,0.4,1.7c0.6,0.4,3.1,0.8,3.7,0.8c0.6,0,1.7,0.2,1.7,0.2s-0.3,0.4-1.2,0.6
	s-3.2,0.3-3.8,0.3c-0.6,0-1.5-0.2-1.8-0.4c0,0,0.3,0.7,0.6,0.9c0,0-0.8,0-1.5-0.2c-0.7-0.3-2.7-1.4-4.6-1.4s-4.4,0.6-5.2,1.9
	c-0.7-0.5-2.4-1.5-3.5-1.7c-1.4-0.2-4.3,1.5-4.9,1.7c0,0,0.9,0.3,1.3,0.1C10.8,276.8,7.7,279.6,5.1,278.8z M34.2,272
	c0,0,0-0.1,0.4-0.2c0.4-0.2,2-0.8,2-0.8c0,0.1,1.1,1.5,1.6,1.7s2.9,0.3,2.9,0.3l-0.5,0.3l-1,0.6c0,0-0.8,0.7-1.1,0.8
	c-0.3,0.2-0.7,0-0.7,0c0.4-1-0.7-1.6-1.5-2C35.6,272.5,34.2,272,34.2,272z M23.9,290.7c0,0,0.1-0.3,0.2-0.7c0.1-0.4,0.7-1.6,0.7-1.6
	s0.6,0.6,0.9,1.5s1,1.6,1,1.6s-1.1,0.2-1.4,0s-0.5-0.4-0.5-0.4C24.6,290.8,23.9,290.7,23.9,290.7z"/>
<g>
	<g class="st7">
		<path class="st8" d="M13.9,331.4c-1,2.4-3.2,3.8-4.2,4.4c-0.1-0.1-0.3-0.2-0.4-0.2c-0.4,0-0.7,0.3-0.7,0.7s0.3,0.7,0.7,0.7
			c0.2,0,0.3,0,0.4-0.1c2,1.3,3.3,2.9,3.8,4.9c0.1,0.4,0.2,0.8,0.2,1.1c0.1-0.1,0.2-0.3,0.2-0.3c-0.3-1-0.6-2-0.7-2.9
			c-0.7-1.1-1.6-2.2-2.9-3l2.7,0.1c0-0.2,0-0.4,0-0.5l-2.7-0.1c0.8-0.5,2.1-1.3,3-2.6c0.4-1.7,1-2.8,1.2-3.1
			c-0.1-0.1-0.1-0.3-0.2-0.4C14.2,330.5,14.1,331,13.9,331.4z"/>
		<path class="st8" d="M12.9,347.8c0,0.1-0.1,0.2-0.1,0.3l0,0c-0.4,0-0.7,0.3-0.7,0.7s0.3,0.7,0.7,0.7c0.1,0,0.2,0,0.3-0.1
			C12.9,348.8,12.8,348.2,12.9,347.8z"/>
		<path class="st8" d="M13.3,346.5c0.2-0.1,0.4-0.1,0.6-0.2c0-0.1,0.1-0.3,0.1-0.4c-0.1-0.1-0.3-0.1-0.5-0.2
			C13.5,346,13.4,346.2,13.3,346.5z"/>
		<path class="st8" d="M36.9,332.7l-3.3,2.1c0.3,0,0.5,0.1,0.5,0.1c-0.1,0.1-0.1,0.2-0.1,0.3l2.9-1.9
			C36.9,333.2,36.9,333,36.9,332.7z"/>
		<path class="st8" d="M36.9,331.9c-0.3,0-0.6-0.1-0.9-0.2c-0.1,0.1-0.2,0.3-0.3,0.4c0.4,0.2,0.8,0.3,1.2,0.3
			C36.9,332.3,36.9,332.1,36.9,331.9z"/>
		<path class="st8" d="M21.2,323.3c1.7-1.1,2.8-2.9,3.4-5.1l0.7,2.6c0.1-0.1,0.3-0.3,0.4-0.4l-0.7-2.5c0.6,0.5,1.4,1.2,2.5,1.7
			c0.6,0,1.3,0.3,1.8,0.7c0.5,0.1,1.1,0.2,1.6,0.3c0,0,0,0,0.1,0c2,0.1,3.9-0.6,5.7-2.1l-0.7,2c0.2-0.1,0.4-0.2,0.6-0.2l0.6-1.8
			c0.1,0.3,0.2,0.8,0.4,1.3c0.1-0.1,0.2-0.1,0.3-0.2l0.1-0.1l0,0c-0.2-0.5-0.3-0.9-0.4-1.2c0.2-0.1,0.3-0.3,0.3-0.5
			c0-0.4-0.3-0.7-0.7-0.7s-0.7,0.3-0.7,0.7c0,0.1,0,0.2,0,0.3c-1.8,1.5-3.7,2.3-5.7,2.2l0,0c-2.8-0.1-4.9-1.9-5.8-2.7
			c0-0.1,0-0.1,0-0.2c0-0.4-0.3-0.7-0.7-0.7c-0.4,0-0.7,0.3-0.7,0.7c0,0.2,0.1,0.5,0.3,0.6c-0.5,2.3-1.6,4-3.2,5.2
			c-0.5,0.4-1.1,0.6-1.6,0.9c0.2,0.1,0.4,0.2,0.5,0.4C20.3,323.9,20.8,323.6,21.2,323.3z"/>
		<path class="st8" d="M35.6,337.6c0-0.1,0-0.2,0-0.3h-0.2c0,0.1,0,0.1,0.1,0.2C35.6,337.5,35.6,337.6,35.6,337.6z"/>
		<path class="st8" d="M51.2,337.7c-0.2,0-0.3,0-0.4,0.1c-2-1.3-3.3-2.9-3.8-4.8c-0.8-2.7,0.2-5.4,0.8-6.6h0.1
			c0.4,0,0.7-0.3,0.7-0.7s-0.3-0.7-0.7-0.7c-0.3,0-0.6,0.2-0.7,0.5c-1.2,0.1-2.3,0-3.3-0.2c0,0.2-0.1,0.3-0.1,0.5
			c0.6,0.2,1.2,0.3,2,0.3c0.4,0,0.8,0,1.3,0l-4,2.6l0,0c-0.1,0-0.2,0-0.4,0c0,0.1-0.1,0.1-0.1,0.2c-0.6,0.8-1.4,1.4-2.2,1.8
			c0.1,0,0.8-0.1,0.8-0.2v0.1l1.2-0.8c-0.4,1-0.8,2.7-0.3,4.4c0.4,1.4,1.3,2.6,2.6,3.5l-4.6-0.2c-1.1-0.6-1.8-1.4-2-2.3
			c-0.3-1.2,0.2-2.4,0.4-2.8l0.4-0.3c0-0.3-0.1-0.5-0.1-0.6l0,0c-0.3,0.6-0.7,1-1.1,1.3l0,0c-0.2,0.6-0.4,1.5-0.1,2.4
			c0.2,0.8,0.7,1.5,1.5,2.1l-3.1-0.1c0.1,0.1,0.2,0.3,0.3,0.5l2.7,0.1c-0.5,0.4-1.1,0.9-1.4,1.8c-0.3,0.8-0.3,1.7,0,2.7l-1.5-1.1
			l0,0l0,0c0.1,0.1,0.1,0.3,0,0.4c0,0.1,0,0.1-0.1,0.2l1.1,0.8c-0.7,0-1.7,0.1-2.6,0.7c-0.7,0.5-1.2,1.2-1.5,2.1l-0.3-1.1
			c-0.2,0.1-0.3,0.1-0.5,0.1l0.3,1.1c-0.5-0.4-1.3-0.9-2.3-0.9c-0.4,0-0.8,0-1.2,0.2c0,0.2,0,0.3,0,0.5c0.4-0.1,0.8-0.2,1.2-0.2
			c1.4,0.1,2.5,1.2,2.6,1.4l1.3,4.5c-0.8-0.7-2.2-1.6-3.9-1.7c0.1,0.2,0.3,0.4,0.4,0.6c1.6,0.3,2.9,1.3,3.5,1.8
			c0.4,0,0.7-0.1,0.9-0.3c0.4-1.7,1.2-2.9,2.4-3.7c2-1.4,4.6-1.1,5.1-1l0.5,0.4c0.3,0,0.5-0.1,0.8-0.1l-0.9-0.7
			c-0.8-1.8-1-3.4-0.4-4.9c0.8-2.1,2.9-3.1,3.3-3.3l4.7,0.2c-1.2,0.7-3.2,2.1-4.1,4.5c-0.5,1.3-0.6,2.7-0.4,4.2c0.2,0,0.4,0,0.5,0.1
			c-0.3-1.4-0.2-2.8,0.3-4c1-2.4,3.2-3.9,4.2-4.4c0.1,0.1,0.3,0.2,0.4,0.2c0.4,0,0.7-0.3,0.7-0.7C51.9,338,51.6,337.7,51.2,337.7z
			 M36.9,347.5c-1.2,0.8-2,2-2.5,3.6l-1.3-4.4c0.2-1.2,0.7-2.1,1.5-2.6c1.2-0.8,2.6-0.7,3-0.6l3.8,2.9
			C40.4,346.2,38.5,346.4,36.9,347.5z M41.7,341.4c-0.5,1.3-0.5,2.8,0.1,4.4l-3.7-2.8c-0.5-1.2-0.6-2.2-0.3-3.1
			c0.5-1.2,1.6-1.8,1.9-1.9l4.7,0.2C43.6,338.8,42.4,339.8,41.7,341.4z M45.6,337.8c-1.7-1-2.8-2.2-3.2-3.7
			c-0.6-2.1,0.3-4.2,0.6-4.8l4-2.6c-0.6,1.4-1.3,3.8-0.6,6.4c0.5,2,1.8,3.6,3.7,4.9L45.6,337.8z"/>
		<path class="st8" d="M46.9,349.4L46.9,349.4c-0.2-0.3-0.3-0.6-0.4-0.9c-0.1,0.1-0.3,0.2-0.4,0.3c0.1,0.2,0.1,0.3,0.2,0.5l-0.4-0.3
			c-0.1,0.1-0.3,0.2-0.4,0.3l0.6,0.4c-0.3,0-0.7,0-1.2,0c-0.3,0.2-0.5,0.4-0.8,0.6c0.9-0.1,1.7-0.1,2.2,0c0.1,0.3,0.3,0.5,0.6,0.5
			c0.4,0,0.7-0.3,0.7-0.7C47.6,349.8,47.3,349.4,46.9,349.4z"/>
		<path class="st8" d="M26.8,354.5c-1,0.3-2.1,0.9-3.1,1.7l0.9-2.5c-0.2-0.1-0.3-0.1-0.5-0.2l-0.9,2.6c-0.3-1-0.8-2.7-2-4.2
			c-1.7-1-2.8-2.1-3.5-2.8c-0.3-0.1-0.5-0.2-0.8-0.3c-0.1,0.1-0.2,0.1-0.3,0.2c-0.1,0-0.1,0.1-0.2,0.2c4.6,1.2,6,5.6,6.3,7.2
			c-0.2,0.1-0.3,0.3-0.3,0.5c0,0.4,0.3,0.7,0.7,0.7c0.4,0,0.7-0.3,0.7-0.7c0-0.1,0-0.2,0-0.3c1.3-1.1,2.6-1.8,3.9-2.1
			C27.4,354.7,27.1,354.6,26.8,354.5z"/>
		<path class="st8" d="M34.5,356c-0.4,0-0.8-0.1-1.1-0.1c0.8,0.5,1.4,0.9,1.8,1.3c-0.2-0.5-0.4-0.9-0.5-1.1
			C34.6,356,34.6,356,34.5,356z"/>
		<path class="st8" d="M32.3,335.1c0,0,0.1,0,0.2-0.1c-0.1,0-0.1-0.1-0.2-0.1c-0.1,0-0.1-0.1-0.1-0.2
			C32.2,334.8,32.2,334.9,32.3,335.1C32.3,335,32.3,335.1,32.3,335.1z"/>
		<path class="st8" d="M32.4,332.2c-0.1,0.1-0.2,0.2-0.4,0.3c0-0.1-0.1-0.2-0.2-0.4l-0.5,1.3c-0.3,0.3-0.7,0.5-1,0.4h-0.1
			c0.1,0.1,0.1,0.3,0.2,0.4c0.8-0.4,1.2-0.6,1.4-0.5c0,0,0.1,0.1,0.1,0.2c0-0.2,0-0.4,0-0.4L32.4,332.2z"/>
		<path class="st8" d="M28.9,333.6C28.9,333.7,28.9,333.7,28.9,333.6l0.1,0.1c0.2-0.2,0.3-0.3,0.4-0.4l-0.1-0.1l-0.8-2.9
			c-0.1,0.3-0.2,0.5-0.3,0.9l0.7,2.3C28.9,333.5,28.9,333.6,28.9,333.6z"/>
		<path class="st8" d="M35.3,357.5c0,0.3,0.2,0.6,0.5,0.7C35.6,357.9,35.4,357.6,35.3,357.5C35.3,357.4,35.3,357.5,35.3,357.5z"/>
	</g>
	<g>
		<path class="st0" d="M32.5,335.6c0.2,0.2,0.5,0.5,0.9,0.6c0.2,0,0.4,0.1,0.6,0c0,0-0.1-0.5,0-0.9c0-0.1,0.1-0.3,0.1-0.3
			s-0.2-0.1-0.5-0.1c-0.2,0-0.4,0-0.6,0c-0.2,0-0.4,0.1-0.5,0.1s-0.2,0.1-0.2,0.1l0,0C32.3,335.1,32.3,335.3,32.5,335.6L32.5,335.6z
			"/>
		<path class="st0" d="M34.9,337.3c0.3,0.1,0.5,0.2,0.6,0.2c0-0.1-0.1-0.1-0.1-0.2c-0.2-0.6-0.1-1.2-0.1-1.2
			c-0.7-0.2-1.2-0.1-1.4,0.1C34,336.8,34.5,337.1,34.9,337.3z"/>
		<path class="st0" d="M46.3,347.3c-0.2,0-0.3,0-0.5-0.1c-0.7-0.1-1.4-0.1-2.2-0.1c-0.3,0-0.5,0-0.8,0.1c-0.2,0-0.4,0.1-0.6,0.1
			c-1.7,0.4-3.6,1-6.1,3.2c-0.3,0.4-0.7,0.8-1.2,1.1c-0.3,0.1-0.6,0.3-0.9,0.3c-0.4,0-0.8,0-1.3-0.2l0,0c-0.1,0.1-0.2,0.1-0.3,0.2
			l0,0c0,0,0,0-0.1,0c0,0,0,0-0.1,0c-0.2,0.1-0.3,0.2-0.6,0.3l0,0c-0.2,0.1-0.3,0.1-0.5,0.2l0,0c-0.2,0-0.4,0.1-0.6,0.1l0,0
			c-0.1,0-0.3,0-0.4,0c0,0,0,0-0.1,0s-0.3,0-0.4,0c0,0,0,0-0.1,0c-0.2,0-0.3-0.1-0.5-0.1l0,0c-0.1,0-0.2,0-0.3-0.1l0,0
			c-0.2-0.1-0.4-0.1-0.5-0.2c0,0,0,0-0.1,0S28,352,27.9,352s-0.1,0-0.2-0.1c-0.2-0.1-0.4-0.2-0.6-0.3c0,0-0.1,0-0.1-0.1
			c-0.1,0-0.1-0.1-0.2-0.1s-0.1-0.1-0.2-0.1c-0.1-0.1-0.2-0.1-0.3-0.2c-0.1-0.1-0.2-0.2-0.4-0.3c0,0-0.1,0-0.1-0.1l0,0l-0.1-0.1
			c-0.1-0.1-0.3-0.2-0.4-0.3s-0.2-0.1-0.3-0.2l-0.1-0.1l0,0l0,0c0,0,0,0,0-0.1l-0.1-0.1l-0.1-0.1c0,0,0-0.1-0.1-0.1l-0.1-0.1
			c0,0,0,0-0.1-0.1c0-0.1-0.1-0.1-0.1-0.2c0,0,0,0,0-0.1s-0.1-0.1-0.1-0.2l0,0c0-0.1-0.1-0.2-0.1-0.2l0,0c-0.1-0.1-0.1-0.2-0.2-0.3
			l0,0c-0.2-0.4-0.4-0.8-0.6-1.3l0,0c-0.5-1.2-0.9-2.8-0.9-4.4l0,0c0-0.4,0.1-0.9,0.2-1.3l0,0c0.1-0.3,0.1-0.5,0.2-0.8l0,0
			c0.1-0.4,0.3-0.9,0.5-1.3l0,0c0.2-0.3,0.3-0.6,0.6-0.9l0,0c0.1,0.2,0.2,0.3,0.3,0.5c0.1,0.2,0.3,0.4,0.4,0.5
			c0.2,0.2,0.3,0.4,0.5,0.6c0.1,0.1,0.1,0.1,0.2,0.2s0.3,0.2,0.4,0.4l0,0c0.4,0.4,0.8,0.7,1.3,1.1l0,0v0.4l0.1,1.9l0,0l0,0l0,0
			c0,0.3,0,0.7,0.1,1c0.1,0.5,0.2,1,0.3,1.5c0.3,1.1,0.9,2.1,1.7,3c0,0,0,0.1,0.1,0.1l0,0c0.1,0.1,0.3,0.3,0.4,0.4l0,0l0,0
			c0.2,0.1,0.3,0.3,0.5,0.4l0,0c0.2,0.1,0.3,0.2,0.5,0.3h0.1c0.2,0.1,0.4,0.2,0.6,0.3c0.1,0,0.1,0,0.2,0.1c0.2,0.1,0.3,0.2,0.5,0.2
			c0.2,0.1,0.5,0.2,0.8,0.3c-0.9-0.4-1.7-1-2.2-1.6c-0.2-0.2-0.3-0.4-0.4-0.6c-0.9-1.3-1.1-2.9-1.2-3.9c0-0.2,0-0.4,0-0.5
			c0-0.4,0-0.7,0-0.8c1.3,0.6,2.4,0.6,3.2,0.4c0.2,0,0.3-0.1,0.5-0.1c0.9-0.3,1.5-0.9,1.8-1.2c0.3-0.1,0.6-0.3,0.9-0.5
			c0.2-0.2,0.4-0.4,0.5-0.6c0-0.1,0.1-0.1,0.1-0.2s0-0.1,0.1-0.2c0-0.1,0-0.3,0-0.4l0,0l0,0c0.5-0.4,0.8-1,0.6-1.9
			c0.1-0.6-0.1-1.1-0.3-1.5c-0.1-0.2-0.2-0.4-0.3-0.5c-0.1-0.2-0.2-0.3-0.2-0.3c0,0.1,0,0.2,0,0.3s0,0.2,0,0.3s0,0.1,0,0.2
			c-0.2,1.4-0.6,2.3-0.7,2.7c0,0.1,0,0.1,0,0.2c0-0.1,0-0.1,0-0.2c0-1.6-0.6-2.4-0.9-2.7c-0.1-0.1-0.2-0.1-0.2-0.1
			c-0.5,1.2-1.2,2-1.6,2.4c0-0.2,0-0.4,0-0.5c0-0.2,0-0.3-0.1-0.4c-0.1-0.4-0.2-0.7-0.3-0.9c-0.2-0.3-0.4-0.5-0.4-0.5s0,0-0.1,0.1
			s-0.2,0.2-0.4,0.4l-0.1,0.1c-0.1,0.1-0.3,0.3-0.4,0.4c-0.2,0.2-0.3,0.3-0.5,0.5l0,0c0,0,0.4-1-0.5-2.5c-0.1,0.1-0.1,0.1-0.2,0.2
			s-0.1,0.1-0.2,0.2c-0.2,0.1-0.5,0.3-0.9,0.5c-0.2,0.1-0.3,0.1-0.5,0.2c0-0.1,0-0.1,0-0.2c0-0.2,0-0.4,0-0.5c0.1-0.5,0.1-1,0.1-1
			s-0.1,0.1-0.2,0.2s-0.3,0.2-0.5,0.3c-0.3,0.2-0.6,0.6-0.7,0.7c-0.1-0.1-0.1-0.2-0.2-0.3l0,0c-0.3-0.6-0.6-1.2-0.9-1.8
			c-0.2-0.5-0.4-1.1-0.5-1.6c-0.1-0.3-0.1-0.5-0.2-0.8c0-0.2-0.1-0.4-0.1-0.6c0.1,0.1,0.3,0.2,0.4,0.4c0.4,0.3,0.8,0.5,1.3,0.7
			s0.9,0.3,1.4,0.4c0.2,0.1,0.5,0.1,0.7,0.1s0.4,0,0.6,0h0.1c0.2,0.1,0.4,0.2,0.5,0.3c0.2,0.1,0.5,0.2,0.8,0.2c0.1,0,0.1,0,0.2,0
			c0,0,0.1,0.1,0.2,0.1c0.1,0.1,0.2,0.1,0.3,0.2c0.1,0.1,0.3,0.2,0.5,0.2c0.1,0,0.2,0.1,0.3,0.1c0.2,0,0.3,0.1,0.5,0.1
			c0,0,0,0,0-0.1s0-0.2-0.1-0.4c-0.1-0.3-0.1-0.6-0.2-0.8c0-0.1-0.1-0.2-0.1-0.2c-0.1-0.1-0.5,0-1.4,0.5c-0.1-0.1-0.1-0.2-0.2-0.4
			c-0.1-0.3-0.3-0.5-0.3-0.8c0,0-0.2-0.1-0.5,0.2c-0.1,0.1-0.3,0.2-0.4,0.4h-0.1h-0.1l-0.6-0.1c-0.2-0.1-0.5-0.1-0.7-0.2
			c-0.5-0.1-0.9-0.3-1.3-0.5s-0.8-0.5-1.2-0.8c-0.1-0.1-0.3-0.3-0.4-0.4s-0.3-0.3-0.4-0.5l-0.1-0.1l-0.5-0.9
			c0.2,0.2,0.4,0.4,0.8,0.5c0.2,0.1,0.5,0.1,0.7,0.1c0,0,0,0.1,0.1,0.1c0.1,0.1,0.2,0.3,0.4,0.4c0.4,0.3,0.8,0.6,1.1,0.7
			c-0.3-1.2,0.2-1.5,0.5-1.9l0,0l0,0l0,0c0,0.9,0.5,1.7,0.8,2c0-0.3,0.1-0.7,0.2-1s0.2-0.6,0.3-0.9c0.1-0.3,0.2-0.5,0.3-0.6l0,0
			c0.3,1.3,1.1,2.6,1.4,2.8c0-0.6,0.3-1.5,0.4-1.8s0.1-0.4,0.1-0.9c0,0,0,0,0.1,0c0.2,0.5,0.8,1.6,1.1,2.3c0.1,0.2,0.1,0.3,0.2,0.4
			c0.1-0.1,0.2-0.2,0.4-0.3c0.8-0.9,1-2,1-2.6c0.2,1.8,0.8,3.4,1.1,3.9c0.4-0.3,0.8-0.8,1.2-1.3c0.1-0.1,0.2-0.3,0.3-0.4
			c0.2-0.3,0.5-0.6,0.7-0.9h0.1c0,0.2,0.1,0.6,0.1,1.1c0,0.2,0,0.4,0,0.5s0,0.2,0,0.3c0,0.3,0,0.5-0.1,0.7l0,0
			c0.2-0.1,0.4-0.3,0.7-0.5c0.4-0.3,0.8-0.8,1.1-1.3l0,0l0,0c0,0,0,0,0.1,0l0,0l0,0c0,0.1,0,0.3,0.1,0.6c0.1,0.6,0.1,1.6,0.1,2
			c0.6-0.4,1.4-1.1,1.8-2.6c0,0,0,0,0-0.1c0.5-0.3,0.6-0.6,0.6-0.9v-0.1c0,0.1-0.7,0.2-0.8,0.2c0.9-0.4,1.7-1,2.2-1.8
			c0,0,0.1-0.1,0.1-0.2c0.3-0.4,0.5-0.8,0.6-1.2c0.2-0.5,0.4-1,0.5-1.5c0-0.1,0-0.1,0-0.2c0-0.2,0.1-0.3,0.1-0.5
			c0.2-0.8,0.3-1.6,0.3-2.4c0-0.5,0-1.1-0.1-1.6s-0.2-1-0.3-1.5c-0.2-0.5-0.3-1-0.6-1.5c-0.1-0.1-0.2-0.2-0.2-0.3
			c-0.1-0.1-0.2-0.2-0.3-0.3c-0.2-0.2-0.4-0.4-0.6-0.6c-0.3-0.2-0.6-0.3-1-0.3c0,0-0.3,0-0.4,0.1c0,0-0.1,0-0.1,0.1l-0.1,0.1
			c-0.1,0.1-0.2,0.2-0.4,0.2c-0.4,0.3-0.8,0.7-1.1,1.1c-0.2,0.2-0.3,0.4-0.5,0.6s-0.3,0.4-0.4,0.6l0,0l-0.1,0.1
			c-0.1,0.1-0.2,0.1-0.3,0.2c-0.3,0.2-0.7,0.4-1,0.5c-0.2,0.1-0.4,0.2-0.6,0.2c-1.5,0.5-3.4,0.8-5.8,0.4c0.3,0.2,0.7,0.4,1.1,0.5
			c0.1,0,0.3,0.1,0.4,0.1c0.2,0,0.3,0.1,0.5,0.2s0.3,0.3,0.3,0.5s-0.1,0.4-0.1,0.6c-0.1,0.2-0.2,0.3-0.3,0.4s-0.3,0.2-0.4,0.3
			c-0.3,0.1-0.7,0.2-1,0.2s-0.5,0-0.8-0.1c0.1,0.3,0.1,0.6,0,0.9c0,0.2-0.1,0.3-0.2,0.5l0,0c-0.5,0.8-1.6,0.9-2.4,0.5
			c-0.1-0.1-0.2-0.1-0.3-0.2c-0.2-0.2-0.4-0.5-0.5-0.8l0,0c0-0.1-0.1-0.2-0.1-0.3c0-0.2,0-0.5,0-0.7c0,0,0-0.1,0-0.2
			c-0.2,0.1-0.4,0.2-0.5,0.3s-0.2,0.2-0.3,0.4c-0.2,0.3-0.3,0.6-0.4,0.9v0.1c0,0.3,0,0.6,0,0.9s0.1,0.5,0.2,0.8
			c-0.1-0.2-0.2-0.4-0.3-0.6c-0.1-0.2-0.1-0.4-0.2-0.6c0-0.1,0-0.3,0-0.4c0-0.6,0.3-1.3,0.7-1.7c0.1-0.1,0.2-0.2,0.3-0.3
			c0.1-0.1,0.3-0.2,0.5-0.3l0.2-0.1l0,0c0.1,0,0.2-0.1,0.2-0.1c0.2,0,0.3-0.1,0.5-0.1c0.7-0.1,1.3,0.3,1.8,0.5s1.1,0.3,1.6,0.3
			c0.3,0,0.5,0,0.7-0.1s0.4-0.3,0.5-0.4s0.1-0.2,0.1-0.3s0-0.1-0.1-0.2c-0.1-0.2-0.4-0.2-0.7-0.3c-0.5-0.2-1-0.5-1.3-1
			c-0.1-0.1-0.3-0.3-0.5-0.4c-0.5-0.3-1.1-0.7-1.8-0.7c-0.1,0-0.2,0-0.3,0c-0.5,0.1-1.1,0.4-1.5,0.7c-0.2,0.1-0.3,0.2-0.4,0.4
			c-0.4,0.4-0.7,0.9-0.9,1.3c-0.3,1-0.8,2.3-3.3,2.9c-0.2-0.2-0.7-0.6-1.3-1c-0.2-0.1-0.3-0.2-0.5-0.4c-2.5-1.6-7-3.4-12.2,0.1
			c1.6,0.5,4.9,1.4,7.2,6.1c0.1,0.1,0.1,0.3,0.2,0.4c-0.2,0.3-0.8,1.4-1.2,3.1c-0.2,0.8-0.3,1.7-0.4,2.7c0,0.2,0,0.3,0,0.5
			c0,0.9,0.1,1.9,0.2,2.9c0.2,0.9,0.4,1.9,0.7,2.9c0,0.1-0.1,0.2-0.2,0.3c-0.4,0.5-1.1,1.6-0.9,2.7c0.2,0,0.5,0,0.8,0.1
			c0.2,0.1,0.4,0.1,0.5,0.2s0.3,0.2,0.3,0.3c-0.2,0.1-0.3,0.1-0.4,0.1c-0.2,0.1-0.5,0.2-0.6,0.2s-0.2,0.1-0.2,0.1s-0.2,0.4-0.2,1.2
			c0,0.4,0,1,0.1,1.6c0.2,1.1,0.7,2.4,1.8,4c-0.2-1.3-0.1-2.8,0.6-4c0.1-0.1,0.1-0.2,0.2-0.3c0.1-0.2,0.2-0.3,0.4-0.5l0.1-0.1
			c0.1-0.1,0.3-0.3,0.4-0.4l0.4-0.3c0.5-0.4,1-0.8,1.5-1.2c0.2-0.2,0.5-0.5,0.7-0.8c0.1-0.2,0.2-0.3,0.4-0.5c0-0.1,0.1-0.1,0.1-0.2
			c0.1-0.1,0.2-0.3,0.2-0.4c0.1-0.1,0.1-0.2,0.2-0.4c0,0,0-0.1,0-0.2c0.1-0.2,0.1-0.4,0.1-0.7l0,0c0-0.3,0-0.6,0-0.9s-0.1-0.7-0.1-1
			s0-0.7,0.1-1s0.2-0.7,0.4-1c0,0.3,0,0.7,0.1,1s0.1,0.6,0.2,0.9c0.1,0.4,0.2,0.9,0.3,1.3c0,0.2,0,0.4,0,0.6v0.1
			c0,0.4-0.1,0.8-0.2,1.1c-0.1,0.2-0.2,0.4-0.2,0.5c-0.1,0.1-0.1,0.2-0.2,0.3l-0.1,0.1c-0.1,0.1-0.1,0.2-0.2,0.3
			c-0.3,0.5-0.7,0.9-1.1,1.3c-0.5,0.5-1.1,0.9-1.7,1.2l-0.1,0.1c0.1,0.1,0.3,0.3,0.5,0.5c0.7,0.7,1.8,1.7,3.5,2.8
			c0.8,0.5,1.8,1,2.9,1.5c0.2,0.1,0.3,0.1,0.5,0.2c0.7,0.3,1.4,0.5,2.2,0.8c0.3,0.1,0.6,0.2,0.9,0.3c1.7,0.5,3.5,0.8,5.7,1.1
			c0.4,0,0.7,0.1,1.1,0.1h0.1c0,0,0,0.1,0.1,0.1c0.1,0.2,0.3,0.6,0.5,1.1c0,0.1,0.1,0.1,0.1,0.2c0.1,0.3,0.3,0.5,0.5,0.8
			c1,1.5,2.9,3.4,6.5,4.3c0,0-3.1-3.6-2.4-8.1c1.6-2,2.5-2.9,3.4-3.6c0.2-0.1,0.4-0.3,0.7-0.5c0.2-0.2,0.5-0.4,0.8-0.6
			c0.2-0.1,0.4-0.3,0.6-0.4c0.1-0.1,0.3-0.2,0.4-0.3c0.1-0.1,0.2-0.1,0.2-0.2c0.2-0.1,0.3-0.2,0.4-0.3c0.7-0.5,1.3-0.9,1.3-0.9
			S47.2,347.4,46.3,347.3z M17.1,337c0.2,0.7,0.5,1.3,0.8,1.9c0.1,0.2,0.2,0.5,0.4,0.7c0.2,0.4,0.5,0.8,0.8,1.1
			c-0.2-0.2-0.4-0.4-0.6-0.7c-0.7-0.8-1.3-1.5-1.7-2.5c-0.1-0.2-0.2-0.4-0.2-0.6c-0.1-0.2-0.1-0.3-0.1-0.5c0-0.1,0-0.2-0.1-0.3
			c0-0.2-0.1-0.4-0.1-0.6c-0.1-0.8-0.2-1.8-0.1-3c0,0,0.1,1.2,0.5,2.7c0,0.2,0.1,0.4,0.1,0.6c0.1,0.2,0.1,0.4,0.2,0.6
			C17,336.6,17,336.8,17.1,337z M41.1,317.7L41.1,317.7L41.1,317.7L41.1,317.7z M26.3,327.5c0.3,0,0.6,0,0.9,0c0.2,0,0.4,0,0.5,0
			c1-0.1,1.7-0.2,2.1-0.3c1.9-0.3,3.7-1.8,4.9-2.8c0.4-0.4,0.8-0.8,1-1l0.1-0.1c0,0,0,0,0.1-0.1c0.7-0.6,1.3-1.4,1.9-2.1l0.3-0.4
			l0.4-0.4l0.2-0.3c0.2-0.2,0.3-0.4,0.5-0.6s0.3-0.3,0.5-0.5c0.4-0.3,0.7-0.6,1.1-0.9c0.1-0.1,0.2-0.1,0.3-0.2h0.1l0,0l0,0
			c0.2,0,0.3,0.1,0.4,0.2c0.1,0.1,0.3,0.3,0.4,0.4c0.1,0.1,0.1,0.2,0.2,0.3c0.1,0.1,0.2,0.2,0.2,0.3c0.2,0.3,0.4,0.8,0.5,1.3
			s0.2,0.9,0.3,1.4s0.1,0.9,0.1,1.4c0,0.7-0.1,1.4-0.2,2.1c0,0.2-0.1,0.3-0.1,0.5c0,0.1,0,0.2,0,0.2c-0.1,0.5-0.2,0.9-0.4,1.4
			s-0.3,0.9-0.5,1.3c0,0.1-0.1,0.1-0.1,0.2c-0.1,0.2-0.2,0.4-0.4,0.5c-0.4,0.5-0.9,1-1.5,1.3c-0.2,0-0.5,0.1-0.7,0.1
			c-0.1,0-0.2,0-0.2-0.1c-0.2-0.1-0.4-0.2-0.6-0.3c-0.3-0.1-0.6-0.3-0.9-0.4c-0.9-0.4-1.7-0.8-2.6-1.1c-0.3-0.1-0.7-0.2-1-0.3
			s-0.6-0.1-0.9-0.1c-1.4-0.1-2.7,0.1-3.9,0.4c-0.2,0.1-0.5,0.1-0.7,0.2c-0.1,0-0.1,0.1-0.2,0.1c-0.2,0.1-0.3,0.1-0.5,0.2
			c-0.1,0-0.1,0.1-0.2,0.1s-0.1,0.1-0.2,0.1c-0.2,0.1-0.4,0.2-0.6,0.3c-0.3,0.1-0.7,0.3-0.9,0.3c-0.2,0.1-0.4,0.1-0.6,0.1
			s-0.4,0-0.5,0c-0.2,0-0.4,0-0.6-0.1c-0.3-0.1-0.4-0.1-0.4-0.1v0.1V330l0,0l0,0l0.1,1.2l0,0c0,0.2,0,0.3,0,0.5c0,0.1,0,0.2,0,0.3
			c0,0.2,0.1,0.5,0.1,0.7c0.1,0.8,0.4,1.7,0.7,2.5c0.2,0.5,0.4,1,0.7,1.5c0.1,0.2,0.2,0.4,0.3,0.5c0.3,0.5,0.7,1,1.2,1.5
			c0,0,0.1,0.1,0.2,0.1c0.8,0.8,1.8,1.3,2.8,1.7c0,0,0.1,0,0.1,0.1c0.4,0.2,0.8,0.5,1.3,0.7c0.2,0.1,0.4,0.2,0.6,0.2
			c0.7,0.2,1.5,0.4,2.3,0.3c0.5,0,1-0.1,1.4-0.3c0.1,0,0.2-0.1,0.2-0.1c0,0.1,0,0.1,0,0.2c0,0,0,0,0,0.1s-0.1,0.2-0.1,0.2
			c-0.1,0.2-0.3,0.4-0.5,0.5c-0.4,0.3-0.8,0.4-1.3,0.5s-1,0.2-1.5,0.2c-0.2,0-0.4,0-0.5,0c-0.3,0-0.5,0-0.8-0.1
			c-0.8-0.1-1.5-0.4-2.2-0.8c-0.2-0.1-0.3-0.2-0.5-0.3l0,0c-0.8-0.5-1.5-1.1-2.2-1.7l-0.1-0.1c-0.1-0.1-0.2-0.2-0.3-0.3
			c-0.3-0.3-0.5-0.5-0.7-0.8c-0.3-0.4-0.6-0.8-0.9-1.2c-0.2-0.3-0.4-0.5-0.5-0.8c-0.1-0.2-0.2-0.4-0.3-0.5c-0.2-0.3-0.4-0.7-0.6-1
			c0-0.1-0.1-0.1-0.1-0.2c-0.1-0.1-0.1-0.2-0.2-0.3c-0.4-0.8-0.8-1.5-1.1-2.3c-0.2-0.5-0.3-0.9-0.4-1.4c0-0.4,0-0.7,0-1.1v-0.1
			c0-0.1,0-0.2,0.1-0.3c0-0.1,0-0.1,0.1-0.2c0.6-2,2.6-2.5,3.4-2.5l0,0C25.1,327.4,25.7,327.5,26.3,327.5z M14.1,337.6
			c0,0,0.8,2.1,3.9,4.4C17.1,341.8,14.5,340.1,14.1,337.6z M19.2,337.1c-0.1-0.2-0.3-0.4-0.4-0.5c-0.4-0.6-0.7-1.2-0.9-1.9
			c-0.1-0.2-0.1-0.5-0.1-0.7c-0.1-1.1,0-2.4,0.7-3.9c0.1-0.2,0.2-0.5,0.3-0.7c0,0-0.3,1.7,0,4c0.1,1,0.4,2.2,0.8,3.4
			c0.1,0.2,0.1,0.4,0.2,0.5c0.2,0.5,0.5,1.1,0.9,1.6C20.2,338.3,19.7,337.7,19.2,337.1z"/>
		<path class="st0" d="M28.1,323.8C28.1,323.8,28,323.8,28.1,323.8c-0.2,0-0.2-0.1-0.3-0.2c0-0.1-0.1-0.1-0.1-0.2v0.1
			c0,0.1,0,0.2,0,0.3s0,0.2,0.1,0.4c0.1,0.4,0.5,0.7,0.8,0.7c0.1,0,0.2,0,0.3-0.1c0.2-0.1,0.3-0.2,0.4-0.4s0.1-0.3,0.1-0.5
			c0-0.1,0-0.2,0-0.2c-0.2,0-0.4-0.1-0.7-0.2c-0.1,0-0.2-0.1-0.2-0.1l0,0C28.5,323.6,28.3,323.8,28.1,323.8z"/>
	</g>
</g>
<g id="leftbar_text">
	<g id="Artboard" transform="translate(-398.000000, -170.000000)">
		<g id="Group-27" transform="translate(398.000000, 170.000000)">
			<path id="Fill-1" class="st9" d="M18.7,121.6c0.2-2,0.1-4.3-0.8-7c-2.4,2.9-3.2,6-3.2,6s0.4,1,1.3,2.2
				C16.9,122.3,17.8,121.9,18.7,121.6"/>
			<path id="Fill-3" class="st9" d="M41.8,118.7c0.1-0.2,0.1-0.4,0.2-0.6c0,0-1.6-3.9-5.4-6.4c1.2,2.8,1.7,5.5,1.6,7.7
				C39.4,119.1,40.6,118.8,41.8,118.7"/>
			<path id="Fill-5" class="st9" d="M24.9,114.2l1.2-0.1l0.1,1.2l1.2-0.1l-0.1-1.2l1.2-0.1l0.1,1.2l1.2-0.1l-0.1-1.2l1.2-0.1
				l0.1,1.2l1.2-0.1l0.1,1.2l-1.2,0.1l0.1,1.2l-1.2,0.1l-0.1-1.2l-1.2,0.1l0.1,1.2l-1.2,0.1l-0.1-1.2l-1.2,0.1l0.1,1.2l-1.2,0.1
				l-0.1-1.2l-1.2,0.1l-0.1-1.2l1.2-0.1L24.9,114.2z M21.2,120.9c0.3-0.1,0.5-0.1,0.8-0.1c4-0.6,8,0.2,11.3,2
				c0.8-0.9,1.8-1.6,2.8-2.2c0.2-2.8-0.2-6.2-2-10c-2-0.8-4.4-1.1-7.3-0.7c-2.9,0.3-5.2,1.4-6.9,2.8
				C21.1,115.7,21.4,118.5,21.2,120.9L21.2,120.9z"/>
			<path id="Fill-7" class="st9" d="M39.6,120.9c-0.3,0.1-0.6,0.2-0.9,0.3c0.5,0.2,1,0.5,1.7,0.9c0.4,0.3,0.9,0.6,1.4,0.9
				c0,0,0.1,0,0.1,0.1c0.2,0.1,0.3,0.2,0.5,0.3c0.1-0.1,0.3-0.2,0.4-0.4c0,0,0,0,0.1-0.1c0.3-0.3,0.5-0.5,0.6-0.7
				c0.3-0.3,0.2-1,0.2-1.7v-0.1c-0.2,0-0.4,0-0.7,0c-0.1,0-0.3,0-0.4,0c-0.5,0-1,0-1.4,0.1C40.6,120.7,40.1,120.8,39.6,120.9"/>
			<path id="Fill-9" class="st9" d="M53.6,132c-1.3-1.6-3-3.6-4.5-3.4c-0.3,0-0.5,0.1-0.7,0.1s-0.4,0.1-0.5,0.1s-0.1,0-0.2,0
				c0,0.1,0.1,0.1,0.1,0.2c0.1,0.1,0.2,0.3,0.2,0.4c1.6,3.2,2.3,7,2.5,9.8c0.2-0.2,0.4-0.5,0.6-0.7C52.6,136.8,53.5,134.5,53.6,132
				L53.6,132"/>
			<path id="Fill-11" class="st9" d="M40.8,123.7c-0.4-0.2-0.7-0.4-1-0.6c-0.7-0.4-1.3-0.7-1.8-0.9c-0.3-0.2-0.6-0.3-0.7-0.3
				c-0.1,0.1-0.2,0.1-0.3,0.2c-0.5,0.3-0.9,0.6-1.3,0.9c-0.3,0.3-0.6,0.5-0.9,0.8c0.2,0.2,0.4,0.3,0.6,0.5c0.5,0.4,0.9,0.7,1.3,1.1
				c0.1,0.1,0.2,0.2,0.3,0.3c0.1,0.1,0.2,0.2,0.3,0.3l0,0c0.2,0,0.4-0.1,0.6-0.1c1.1-0.2,2.1-0.7,2.9-1.2c0.2-0.1,0.4-0.3,0.6-0.4
				C41.2,124,41,123.9,40.8,123.7"/>
			<path id="Fill-13" class="st9" d="M46.1,125.7c-0.2,0.1-0.4,0.2-0.6,0.4l0,0l0,0c0.1,0.1,0.2,0.2,0.4,0.4l0.1,0.1
				c0.2,0.3,0.5,0.5,0.7,0.8c0.1,0.1,0.1,0.1,0.2,0.2c0.1,0.1,0.2,0.2,0.2,0.3c0.1,0,0.3-0.1,0.4-0.1c0.1,0,0.2,0,0.2-0.1
				c0.4-0.1,0.8-0.2,1.2-0.2c1.7-0.2,3.3,1.2,4.6,2.7c-0.1-0.4-0.1-0.8-0.2-1.3c-0.4-1.7-1.2-3.2-2.2-4.4c-0.1-0.1-0.2-0.2-0.3-0.3
				c-0.8,0.1-1.7,0.3-2.6,0.5C47.7,124.9,47,125.2,46.1,125.7"/>
			<path id="Fill-15" class="st9" d="M41,142.5L41,142.5c1-1.9,1.9-5.7,2.4-8c0.3-1.1,0.5-2.1,0.7-2.7c0.4-1.2,0.8-2.2,1.5-2.9
				c0.1-0.1,0.2-0.2,0.3-0.3c0.1,0,0.1-0.1,0.2-0.1l-0.1-0.1c-0.1-0.1-0.2-0.3-0.3-0.4c-0.2-0.2-0.4-0.5-0.6-0.7l0,0l-0.1-0.1
				c-0.1-0.1-0.2-0.2-0.4-0.4c-0.1,0.1-0.3,0.2-0.4,0.3l-0.1,0.1c-1.2,0.9-2.5,1.9-3.8,3c0.1,0.2,0.2,0.4,0.3,0.6
				c0.2,0.4,0.3,0.7,0.4,1.1c0.3,0.8,0.5,1.6,0.6,2.4c0,0.1,0,0.3,0.1,0.4c0.2,1.1,0.2,2.2,0.2,3.3C41.8,139.5,41.5,141,41,142.5"/>
			<path id="Fill-17" class="st9" d="M39.4,128.5c0.1,0.2,0.2,0.4,0.4,0.6c1.1-1,2.3-2,3.4-2.8c0.2-0.1,0.4-0.3,0.6-0.4l0,0l0,0
				c-0.2-0.2-0.4-0.3-0.5-0.5c-0.1-0.1-0.2-0.2-0.3-0.3c0,0,0,0-0.1-0.1s-0.3-0.2-0.4-0.3c-0.2,0.1-0.3,0.2-0.5,0.3c0,0,0,0-0.1,0
				c-1,0.7-2.3,1.4-3.7,1.6c0.2,0.2,0.3,0.4,0.5,0.6C38.9,127.8,39.2,128.2,39.4,128.5"/>
			<path id="Fill-19" class="st9" d="M43.8,124.5c0.1,0.1,0.3,0.2,0.4,0.4c0,0,0.1,0,0.1,0.1c0.1,0.1,0.3,0.2,0.4,0.4
				c0.2-0.1,0.3-0.2,0.5-0.3c0,0,0.1,0,0.1-0.1c1.1-0.7,2-1.1,2.6-1.3c0.7-0.2,1.3-0.3,1.9-0.4c-0.2-0.2-0.5-0.4-0.7-0.6
				c-1.1-0.8-2.3-1.4-3.7-1.8c-0.2-0.1-0.5-0.1-0.7-0.2c0,0.8,0.1,1.6-0.4,2.2c-0.1,0.2-0.3,0.4-0.6,0.7c-0.1,0.1-0.3,0.3-0.5,0.5
				C43.5,124.2,43.6,124.4,43.8,124.5"/>
			<path id="Fill-21" class="st9" d="M43,142.6c2.3-0.1,4.4-0.9,6.1-2.1c0.1-0.1,0.2-0.1,0.3-0.2c-0.1-2.9-0.7-7-2.4-10.3
				c-0.1-0.1-0.1-0.2-0.2-0.3c-0.1-0.1-0.1-0.2-0.2-0.3c-0.1,0.1-0.2,0.1-0.3,0.2c-0.1,0.1-0.2,0.2-0.2,0.3c-0.4,0.5-0.7,1.3-1,2.3
				c-0.2,0.6-0.4,1.5-0.6,2.6c-0.7,3.2-1.5,6.1-2.3,7.9c0.1,0,0.2,0,0.4,0C42.7,142.6,42.8,142.6,43,142.6"/>
			<path id="Fill-23" class="st9" d="M31.5,145.2C31.5,145.2,31.4,145.2,31.5,145.2c-1.7,0.4-3.4,0.6-5.1,0.7l-3.3-5.2
				c0.4-0.9,0.9-1.8,1.3-2.7c0.3-0.6,0.6-1.2,0.9-1.8l5-0.7l1.4-0.2c0.5,0.6,0.9,1.2,1.3,1.9c0,0,0,0,0,0.1c0.2,0.2,0.3,0.5,0.5,0.7
				c0.2,0.3,0.3,0.5,0.5,0.8c0.1,0.2,0.3,0.4,0.4,0.7l-0.1,0.1l-0.6,1.3L31.5,145.2z M22.8,132.6C22.8,132.5,22.8,132.5,22.8,132.6
				c-0.3-0.3-0.6-0.6-0.9-0.9l1-3.4l0.6-1.9c0.1,0,0.2-0.1,0.4-0.1c0.9-0.1,1.9-0.3,2.8-0.4c0.6-0.1,1.2-0.1,1.7-0.1l1.9,2l0.8,0.9
				l0.6,0.6l1.1,1.2c-0.1,0.5-0.3,0.9-0.4,1.4c-0.2,0.6-0.4,1.3-0.7,1.9c-0.1,0.2-0.1,0.3-0.2,0.5l-1.5,0.2l-4.7,0.7
				c-0.1-0.1-0.2-0.2-0.2-0.3C24.4,134.1,23.6,133.3,22.8,132.6L22.8,132.6z M32.7,126.7c0.1,0.1,0.2,0.1,0.3,0.2
				c0.3,0.2,0.5,0.4,0.8,0.7c0.1,0.1,0.1,0.1,0.2,0.2l0.1,0.1c0.2,0.2,0.3,0.3,0.5,0.5c0.3,0.3,0.5,0.6,0.8,0.9
				c0.3,0.3,0.5,0.7,0.7,1.1c0.2,0.3,0.4,0.7,0.6,1c0,0,0,0,0,0.1c0,0,0,0-0.1,0c-0.3-0.2-0.7-0.4-1-0.6c-0.5-0.3-1-0.5-1.6-0.7
				c-0.1-0.1-0.3-0.1-0.4-0.1l-0.1-0.1l-1-1l-0.3-0.3l-0.1-0.1l-1.3-1.3l-0.1-0.1l-1.5-1.6c0-0.2,0-0.4,0-0.6c0.7,0.2,1.3,0.5,2,0.9
				c0.4,0.2,0.8,0.4,1.1,0.7C32.4,126.5,32.5,126.6,32.7,126.7L32.7,126.7z M16.3,133.8L13,132c0-0.1,0-0.2,0-0.3
				c0.2-0.6,0.4-1.2,0.6-1.7c0.2-0.4,0.4-0.9,0.6-1.3c0.1-0.2,0.3-0.3,0.5-0.5c1.5-1.6,3.2-2.7,5.1-3.4l0,0l0,0
				c0.2,0.1,0.3,0.1,0.5,0.2c0.8,0.3,1.5,0.7,2.2,1.1l-0.5,1.7l-0.9,3.2l0,0c-0.3,0.1-0.7,0.3-1,0.4
				C18.8,132.2,17.5,132.9,16.3,133.8L16.3,133.8z M11,134.4c0.1,0.3,0.2,0.6,0.3,0.8c0-0.1,0-0.3,0.1-0.4c0.2-0.5,0.5-1,0.9-1.5
				c0.1-0.2,0.2-0.3,0.3-0.5l3.3,1.8v0.1c0.1,1.7,0.3,3.4,0.7,5.1l0,0l-0.8,1.4c0.2,0.2,0.5,0.4,0.7,0.6l0.7-1.2c0.1,0,0.1,0,0.2,0
				c1.6,0.4,3.2,0.6,4.8,0.8c0.1,0,0.2,0,0.2,0l3.1,4.8c1.5,0.4,3,0.7,4.6,0.9c0.9,0.1,1.8,0.1,2.6,0.1c-0.1-0.5-0.3-1-0.4-1.5
				l2.1-4.2l0.8-1.7l0.1-0.2c0.5-0.3,1-0.5,1.5-0.8c0.3-0.2,0.7-0.4,1-0.7c0.1-0.1,0.2-0.2,0.2-0.3c0,0.6-0.1,1.1-0.2,1.7
				c-0.1,0.6-0.3,1.2-0.4,1.8c-0.2,0.6-0.4,1.1-0.7,1.7c-0.6,1.2-1.3,2.3-2.3,3.4c-0.3,0.3-0.5,0.6-0.8,0.8c0.3,0,0.6,0,0.9,0
				c0.6,0,1.2-0.1,1.8-0.2c0.9-1,1.6-2.1,2.2-3.2c0.3-0.5,0.5-1.1,0.7-1.7c0.2-0.6,0.4-1.1,0.5-1.7c0.4-1.7,0.5-3.6,0.2-5.4
				c-0.1-0.5-0.2-1.1-0.3-1.6c-0.1-0.4-0.2-0.8-0.4-1.2c-0.1-0.2-0.2-0.5-0.3-0.7c-0.2-0.4-0.3-0.7-0.5-1.1
				c-0.1-0.2-0.2-0.4-0.3-0.6c-0.4-0.7-0.9-1.3-1.4-1.9c-0.2-0.2-0.3-0.4-0.5-0.6c-0.3-0.3-0.6-0.6-1-0.9c-0.1-0.1-0.2-0.2-0.4-0.3
				c-0.1-0.1-0.2-0.2-0.3-0.3c-0.3-0.2-0.6-0.5-0.9-0.7c-0.5-0.3-1-0.6-1.5-0.9c-2.9-1.5-6.3-2.2-9.8-1.6c-0.4,0.1-0.9,0.2-1.3,0.3
				c-0.9,0.2-1.8,0.5-2.7,0.9c-0.4,0.2-0.8,0.4-1.2,0.6c-3.1,1.6-5.5,4.2-6.8,7.3C10.4,132.5,10.7,133.4,11,134.4L11,134.4z"/>
			<path id="Fill-25" class="st9" d="M34.8,148.5c-0.6,0-1.2,0.1-1.9,0.1c-0.6,0-1.2,0-1.8-0.1c-0.4,0-0.8-0.1-1.2-0.1
				c-1.1-0.1-2.2-0.3-3.2-0.5c-0.6-0.1-1.2-0.3-1.9-0.5c-0.6-0.2-1.2-0.4-1.8-0.6c-2.2-0.8-4.1-1.7-5.9-2.9c-0.5-0.3-1-0.7-1.5-1.1
				c-0.2-0.2-0.5-0.4-0.7-0.6c-0.5-0.4-0.9-0.8-1.3-1.2c-0.1-0.1-0.1-0.1-0.2-0.2c-0.9-0.9-1.7-1.9-2.3-3c-0.2-0.3-0.3-0.5-0.5-0.8
				c-0.5-1-1-2-1.3-3c-0.4-1.2-0.6-2.5-0.6-3.7c0-0.5,0-1,0.1-1.4c0.2-2.1,0.9-4.1,2.1-5.9c-2.6,2.4-4.2,5.5-4.6,8.9
				c-0.2,2.1,0.1,4.2,0.8,6.2c0.1,0.2,0.2,0.4,0.3,0.7c0.6,1.5,1.5,2.9,2.6,4.2s2.5,2.6,4,3.7c1.4,1,2.9,1.8,4.5,2.5
				c1.1,0.5,2.2,0.9,3.4,1.2c1.4,0.4,2.8,0.7,4.3,0.9c0.4,0.1,0.8,0.1,1.2,0.1c0.6,0.1,1.2,0.1,1.8,0.1c1.5,0.1,3,0,4.5-0.1
				c0.1,0,0.1,0,0.2,0c7.1-0.8,13-4.2,16.1-8.9c-3,2.9-7.3,4.9-12.3,5.7C36.7,148.3,35.8,148.4,34.8,148.5"/>
		</g>
	</g>
</g>
<g>
	<g>
		<path class="st0" d="M37.9,380c-0.3,0-0.6,0-0.9,0.1l-5.9,1.6L13,386.6h20.5h8.9l-1.1-4.1C40.8,381,39.4,380,37.9,380z"/>
		<path class="st0" d="M44.9,387.5h-0.5h-0.7H43h-5H19.1h-2.5h-2.1h-0.4h-1.3c-0.7,0-1.3,0.3-1.7,0.8c-0.2,0.2-0.3,0.5-0.4,0.8
			c0,0.2-0.1,0.4-0.1,0.6v0.3v2.5V414c0,1.2,1,2.2,2.2,2.2h32.1c1.2,0,2.2-1,2.2-2.2v-6.1H34.2c-2,0-3.7-1.7-3.7-3.7v-2v-0.7v-0.7
			v-1.5c0-1,0.4-1.9,1-2.6c0.6-0.6,1.3-1,2.2-1.1c0.1,0,0.3,0,0.4,0h11.1H46h0.7h0.5v-5.9C47.1,388.4,46.1,387.5,44.9,387.5z"/>
		<path class="st0" d="M48.6,397.6c-0.2-0.2-0.5-0.4-0.8-0.5c-0.2-0.1-0.5-0.1-0.7-0.1H47l0,0h-0.7H44h-9.7c-1.2,0-2.2,1-2.2,2.2
			v1.1v0.7v0.7v2.4c0,1.2,1,2.2,2.2,2.2h12.9h0.1c0.2,0,0.5,0,0.7-0.1c0.3-0.1,0.5-0.3,0.8-0.5c0.4-0.4,0.7-1,0.7-1.6v-4.8
			C49.3,398.6,49.1,398,48.6,397.6z M38.8,402.1c0,0.6-0.5,1.1-1.1,1.1H37c-0.6,0-1.1-0.5-1.1-1.1v-0.7c0-0.3,0.2-0.7,0.4-0.9
			c0.2-0.1,0.4-0.2,0.7-0.2h0.2h0.5c0.6,0,1.1,0.5,1.1,1.1L38.8,402.1L38.8,402.1z"/>
	</g>
</g>
<g id="type1">
	<g id="Group-7" transform="translate(0.000000, -1.000000)">
		<g id="Group-3" transform="translate(0.000000, 0.961700)">
			<g id="Clip-2">
			</g>
			<path id="Fill-1_1_" class="st9" d="M48.8,464.4h-36v-7.8c0.4,0.2,0.8,0.4,1.2,0.5c5.3,2.8,17.5,7.1,28.9-4
				c0,0-11.7,8.7-21.4,3.7c0.3-0.1,0.5-0.2,0.7-0.4c0.5-0.3,0.9-0.6,1.3-0.9c3.7,1.9,10.1,3.3,18-2.9c0,0-8.8,5.1-16.5,1.5
				c0.1-0.2,0.6-1,0.8-1.1c7.2,2.3,13.1-0.6,13.1-0.6c-8.4,2.6-11-2.4-11.8-5.1c-0.1-1.4-0.5-2.9-1.3-4.2c-0.2-0.3-0.3-0.5-0.5-0.8
				h23.4L48.8,464.4L48.8,464.4z M30.8,467.3c-0.4,0-0.8-0.4-0.8-0.8s0.3-0.7,0.7-0.8c0.5,0,0.8,0.3,0.8,0.7
				C31.6,467,31.2,467.3,30.8,467.3L30.8,467.3z M10.6,450.7c-0.1-0.2-0.3-0.4-0.4-0.6c-0.2-0.3-0.4-0.6-0.6-1l1-2.9l0.4-1.1
				c0.3-0.1,0.6-0.1,0.9-0.2c0.3,0,0.6-0.1,0.9-0.1c0.3,0,0.5-0.1,0.8-0.1L16,448c0,0.1-0.1,0.1-0.1,0.2c-0.2,0.7-0.5,1.4-0.7,2.1
				l0,0c-0.1,0.3-0.1,0.5-0.2,0.8l-2.1,0.4l-1.4,0.3c-0.1-0.1-0.1-0.1-0.2-0.2C11.1,451.4,10.9,451,10.6,450.7L10.6,450.7z M8.8,449
				c-0.2-1.1-0.1-2.3,0.2-3.4s0.8-2,1.4-2.8c-0.1,0.6,0,1.3,0.1,1.9c0,0.1,0,0.2,0,0.3l-1.3,3.9C9,448.9,8.9,449,8.8,449L8.8,449z
				 M19.7,439.4c0.5,0.1,0.9,0.3,1.3,0.5c-0.1,0-0.1,0.1-0.2,0.1c-0.3,0.3-0.6,0.5-0.9,0.8l-4.4,0.1c-0.5-0.4-1-0.7-1.6-1h-0.1h-0.1
				C15.5,439.1,17.6,438.9,19.7,439.4L19.7,439.4z M21.9,444.2l-2,3.5c-0.7,0-1.3,0-2,0.1c-0.4,0-0.9,0-1.3,0.1l-2.4-3.4
				c0.4-0.7,0.7-1.5,1.2-2.2c0-0.1,0.1-0.1,0.1-0.2c0.1-0.1,0.2-0.3,0.3-0.4l4.3-0.1l0,0c0.2,0.2,0.4,0.5,0.6,0.7
				C21,442.9,21.5,443.5,21.9,444.2L21.9,444.2z M26.2,447.9l-0.7-1.9l-0.5-1.5v-0.1c0-0.4-0.1-0.8-0.2-1.2c0.5,0.8,0.9,1.7,1.1,2.7
				C26.1,446.5,26.2,447.2,26.2,447.9L26.2,447.9z M24.6,451.3l-3-0.1v-0.1c-0.3-1-0.6-2-1-3c0-0.1,0-0.1-0.1-0.1l0.1-0.2l1.9-3.2
				c0.6,0.1,1.2,0.1,1.7,0.2c0.1,0,0.2,0,0.3,0l0.5,1.4l0.9,2.6c-0.3,0.7-0.6,1.4-1,2.1C24.8,450.9,24.7,451.1,24.6,451.3
				L24.6,451.3z M11.8,454.5l-0.1-0.1l0,0l0,0c-0.1-0.7-0.1-1.3-0.1-2l1.2-0.2l2.1-0.4l0,0c0.2,0.1,0.4,0.3,0.6,0.4
				c0.8,0.6,1.6,1.1,2.4,1.5v1.3v1.2c-0.1,0-0.1,0.1-0.2,0.1c-0.4,0.1-0.8,0.1-1.2,0.2c-0.3,0-0.6,0-0.9,0.1c-0.1,0-0.3-0.1-0.4-0.1
				c-0.8-0.2-1.6-0.6-2.3-1C12.5,455.1,12.1,454.8,11.8,454.5L11.8,454.5z M24.1,453.5L24.1,453.5c-0.5,0.6-1,1-1.5,1.4
				c-0.7,0.5-1.5,0.9-2.3,1.2c-0.1,0-0.2,0.1-0.3,0.1c-0.4,0-0.8,0-1.2,0c-0.1,0-0.2,0-0.4,0v-1v-1.5l0,0c0.5-0.3,1-0.6,1.4-0.9
				s0.7-0.5,1-0.8c0.1-0.1,0.2-0.2,0.3-0.2l0,0h0.4l2.7,0.1v0.1c0,0.4-0.1,0.8-0.2,1.2C24.1,453.3,24.1,453.4,24.1,453.5L24.1,453.5
				z M51,442.5c0-1.5-0.9-2.4-2.4-2.4H30.8c-2.5,0-5,0-7.5,0c-2.4-1.8-5.4-2.4-8.4-1.6c-0.8,0.2-1.6,0.6-2.4,1
				c-2.3,1.3-3.9,3.4-4.6,5.9s-0.3,5.2,1,7.4c0.5,0.8,1.1,1.6,1.7,2.2c0,3.7,0,7.5,0,11.2c0,1.6,0.9,2.5,2.5,2.5
				c11.8,0,23.6,0,35.4,0c1.5,0,2.4-0.9,2.4-2.4C51,458.4,51,450.4,51,442.5L51,442.5z"/>
		</g>
		<g id="Group-6" transform="translate(17.000000, 37.961700)">
			<g id="Clip-5">
			</g>
			<path id="Fill-4" class="st9" d="M18.4,434.6c-0.1-0.5-0.2-1-0.3-1.5c0-0.3-0.1-0.4-0.5-0.4c-2.6,0-5.2,0-7.8,0
				c-0.3,0-0.4,0.1-0.5,0.4c-0.1,0.4-0.2,0.9-0.2,1.3c-0.1,0.8-0.5,1.3-1.3,1.5c-0.5,0.2-1,0.3-1.5,0.5c-0.7,0.2-0.7,0.2-0.5,1h15.8
				v-0.8c-0.7-0.3-1.4-0.5-2.2-0.7C18.9,435.7,18.5,435.3,18.4,434.6"/>
		</g>
	</g>
</g>
<g id="Page-1">
	<g id="Group">
		<path id="Shape" class="st9" d="M43.7,519.6H37c-0.8,0-1.5-0.7-1.5-1.5c0-0.8,0.7-1.5,1.5-1.5h6.7c1.3,0,2.6-0.5,3.5-1.4
			c0.9-0.9,1.4-2.1,1.4-3.4c0-2.7-2.2-4.9-4.9-4.9l-0.3,0l-1.7,0l0.1-2.5c0-4.8-3.9-8.6-8.7-8.6c-3.8,0-7.1,2.4-8.3,5.9l-1,2.9
			l-1.7-2.5c-0.6-0.8-1.5-1.3-2.4-1.3c-1.6,0-3,1.3-3,2.9l0.1,0.9l0.2,1.6l-1.4,0.3c-2.5,0.5-4.3,2.6-4.3,5.1c0,1.4,0.5,2.7,1.5,3.7
			c1,1,2.3,1.5,3.7,1.5h6.9c0.8,0,1.5,0.7,1.5,1.5c0,0.8-0.7,1.5-1.5,1.5h-6.9c-2.2,0-4.3-0.9-5.9-2.4c-1.6-1.6-2.4-3.6-2.4-5.8
			c0-3.3,2.2-6.4,5.4-7.6c0-0.1,0-0.1,0-0.1l0-0.1c0-3.3,2.7-6,6-6c1.1,0,2.1,0.4,3.2,1.1c2.1-3.8,6-6.1,10.2-6.1
			c6.4,0,11.7,5.1,11.8,11.4c3.9,0.6,6.8,3.9,6.8,7.7C51.7,516,48.1,519.6,43.7,519.6z M26.9,525.1v-11.3c0-0.4,0.4-0.8,0.8-0.8h4.7
			c0.4,0,0.8,0.4,0.8,0.8v11.6h3.4c0.3,0,0.5,0.4,0.3,0.6l-6.6,8.4c-0.2,0.2-0.5,0.2-0.6,0l-6.5-8.6c-0.2-0.3,0-0.6,0.3-0.6H26.9z"
			/>
	</g>
</g>
</svg>
